999
"DXF R12 Output" (www.mydxf.blogspot.com)
 0 
SECTION
 2 
HEADER
 9 
$ACADVER
 1 
AC1009
 9 
$EXTMIN
 10 
 0 
 20 
 0 
 9 
$EXTMAX
 10 
 8.5 
 20 
 11 
 0 
ENDSEC
 0 
SECTION
 2 
ENTITIES
0
LINE
8
Layer 1
10
53.626384
20
179.873590
11
56.373485
21
179.873590
0
LINE
8
Layer 1
10
56.373485
20
179.873590
11
56.373485
21
70.126623
0
LINE
8
Layer 1
10
56.373485
20
70.126623
11
53.626384
21
70.126623
0
LINE
8
Layer 1
10
53.626384
20
70.126623
11
53.626384
21
179.873590
0
LINE
8
Layer 1
10
57.284426
20
174.716939
11
57.284426
21
75.282481
0
LINE
8
Layer 1
10
57.284426
20
174.716939
11
61.254086
21
174.716939
0
LINE
8
Layer 1
10
57.284426
20
172.717478
11
59.136934
21
172.717478
0
LINE
8
Layer 1
10
57.284426
20
170.718016
11
59.136934
21
170.718016
0
LINE
8
Layer 1
10
57.284426
20
168.718555
11
59.136934
21
168.718555
0
LINE
8
Layer 1
10
57.284426
20
166.719094
11
59.136934
21
166.719094
0
LINE
8
Layer 1
10
57.284426
20
164.719633
11
61.254086
21
164.719633
0
LINE
8
Layer 1
10
57.284426
20
162.720172
11
59.136934
21
162.720172
0
LINE
8
Layer 1
10
57.284426
20
160.720710
11
59.136934
21
160.720710
0
LINE
8
Layer 1
10
57.284426
20
158.721249
11
59.136934
21
158.721249
0
LINE
8
Layer 1
10
57.284426
20
156.721788
11
59.136934
21
156.721788
0
LINE
8
Layer 1
10
57.284426
20
154.722327
11
61.254086
21
154.722327
0
LINE
8
Layer 1
10
57.284426
20
152.722866
11
59.136934
21
152.722866
0
LINE
8
Layer 1
10
57.284426
20
150.723404
11
59.136934
21
150.723404
0
LINE
8
Layer 1
10
57.284426
20
148.723943
11
59.136934
21
148.723943
0
LINE
8
Layer 1
10
57.284426
20
146.724482
11
59.136934
21
146.724482
0
LINE
8
Layer 1
10
57.284426
20
144.725021
11
61.254086
21
144.725021
0
LINE
8
Layer 1
10
57.284426
20
142.725560
11
59.136934
21
142.725560
0
LINE
8
Layer 1
10
57.284426
20
140.726098
11
59.136934
21
140.726098
0
LINE
8
Layer 1
10
57.284426
20
138.726637
11
59.136934
21
138.726637
0
LINE
8
Layer 1
10
57.284426
20
136.727176
11
59.136934
21
136.727176
0
LINE
8
Layer 1
10
57.284426
20
134.727715
11
61.254086
21
134.727715
0
LINE
8
Layer 1
10
57.284426
20
132.728254
11
59.136934
21
132.728254
0
LINE
8
Layer 1
10
57.284426
20
130.728792
11
59.136934
21
130.728792
0
LINE
8
Layer 1
10
57.284426
20
128.729331
11
59.136934
21
128.729331
0
LINE
8
Layer 1
10
57.284426
20
126.729870
11
59.136934
21
126.729870
0
LINE
8
Layer 1
10
57.284426
20
124.730409
11
61.254086
21
124.730409
0
LINE
8
Layer 1
10
57.284426
20
122.730948
11
59.136934
21
122.730948
0
LINE
8
Layer 1
10
57.284426
20
120.731486
11
59.136934
21
120.731486
0
LINE
8
Layer 1
10
57.284426
20
118.732025
11
59.136934
21
118.732025
0
LINE
8
Layer 1
10
57.284426
20
116.732564
11
59.136934
21
116.732564
0
LINE
8
Layer 1
10
57.284426
20
114.733103
11
61.254086
21
114.733103
0
LINE
8
Layer 1
10
57.284426
20
112.733642
11
59.136934
21
112.733642
0
LINE
8
Layer 1
10
57.284426
20
110.734180
11
59.136934
21
110.734180
0
LINE
8
Layer 1
10
57.284426
20
108.734719
11
59.136934
21
108.734719
0
LINE
8
Layer 1
10
57.284426
20
106.735258
11
59.136934
21
106.735258
0
LINE
8
Layer 1
10
57.284426
20
104.735797
11
61.254086
21
104.735797
0
LINE
8
Layer 1
10
57.284426
20
102.736336
11
59.136934
21
102.736336
0
LINE
8
Layer 1
10
57.284426
20
100.736874
11
59.136934
21
100.736874
0
LINE
8
Layer 1
10
57.284426
20
98.737413
11
59.136934
21
98.737413
0
LINE
8
Layer 1
10
57.284426
20
96.737952
11
59.136934
21
96.737952
0
LINE
8
Layer 1
10
57.284426
20
94.738491
11
61.254086
21
94.738491
0
LINE
8
Layer 1
10
57.284426
20
92.739030
11
59.136934
21
92.739030
0
LINE
8
Layer 1
10
57.284426
20
90.739568
11
59.136934
21
90.739568
0
LINE
8
Layer 1
10
57.284426
20
88.740107
11
59.136934
21
88.740107
0
LINE
8
Layer 1
10
57.284426
20
86.740646
11
59.136934
21
86.740646
0
LINE
8
Layer 1
10
57.284426
20
84.741185
11
61.254086
21
84.741185
0
LINE
8
Layer 1
10
57.284426
20
82.741724
11
59.136934
21
82.741724
0
LINE
8
Layer 1
10
57.284426
20
80.742262
11
59.136934
21
80.742262
0
LINE
8
Layer 1
10
57.284426
20
78.742801
11
59.136934
21
78.742801
0
LINE
8
Layer 1
10
57.284426
20
76.743340
11
59.136934
21
76.743340
0
LINE
8
Layer 1
10
57.284426
20
75.282481
11
61.254086
21
75.282481
0
LINE
8
Layer 1
10
52.719894
20
75.282761
11
52.719894
21
174.717219
0
LINE
8
Layer 1
10
52.719894
20
75.282761
11
48.750234
21
75.282761
0
LINE
8
Layer 1
10
52.719894
20
77.282222
11
50.867386
21
77.282222
0
LINE
8
Layer 1
10
52.719894
20
79.281684
11
50.867386
21
79.281684
0
LINE
8
Layer 1
10
52.719894
20
81.281145
11
50.867386
21
81.281145
0
LINE
8
Layer 1
10
52.719894
20
83.280606
11
50.867386
21
83.280606
0
LINE
8
Layer 1
10
52.719894
20
85.280067
11
48.750234
21
85.280067
0
LINE
8
Layer 1
10
52.719894
20
87.279528
11
50.867386
21
87.279528
0
LINE
8
Layer 1
10
52.719894
20
89.278990
11
50.867386
21
89.278990
0
LINE
8
Layer 1
10
52.719894
20
91.278451
11
50.867386
21
91.278451
0
LINE
8
Layer 1
10
52.719894
20
93.277912
11
50.867386
21
93.277912
0
LINE
8
Layer 1
10
52.719894
20
95.277373
11
48.750234
21
95.277373
0
LINE
8
Layer 1
10
52.719894
20
97.276834
11
50.867386
21
97.276834
0
LINE
8
Layer 1
10
52.719894
20
99.276296
11
50.867386
21
99.276296
0
LINE
8
Layer 1
10
52.719894
20
101.275757
11
50.867386
21
101.275757
0
LINE
8
Layer 1
10
52.719894
20
103.275218
11
50.867386
21
103.275218
0
LINE
8
Layer 1
10
52.719894
20
105.274679
11
48.750234
21
105.274679
0
LINE
8
Layer 1
10
52.719894
20
107.274140
11
50.867386
21
107.274140
0
LINE
8
Layer 1
10
52.719894
20
109.273602
11
50.867386
21
109.273602
0
LINE
8
Layer 1
10
52.719894
20
111.273063
11
50.867386
21
111.273063
0
LINE
8
Layer 1
10
52.719894
20
113.272524
11
50.867386
21
113.272524
0
LINE
8
Layer 1
10
52.719894
20
115.271985
11
48.750234
21
115.271985
0
LINE
8
Layer 1
10
52.719894
20
117.271446
11
50.867386
21
117.271446
0
LINE
8
Layer 1
10
52.719894
20
119.270908
11
50.867386
21
119.270908
0
LINE
8
Layer 1
10
52.719894
20
121.270369
11
50.867386
21
121.270369
0
LINE
8
Layer 1
10
52.719894
20
123.269830
11
50.867386
21
123.269830
0
LINE
8
Layer 1
10
52.719894
20
125.269291
11
48.750234
21
125.269291
0
LINE
8
Layer 1
10
52.719894
20
127.268752
11
50.867386
21
127.268752
0
LINE
8
Layer 1
10
52.719894
20
129.268214
11
50.867386
21
129.268214
0
LINE
8
Layer 1
10
52.719894
20
131.267675
11
50.867386
21
131.267675
0
LINE
8
Layer 1
10
52.719894
20
133.267136
11
50.867386
21
133.267136
0
LINE
8
Layer 1
10
52.719894
20
135.266597
11
48.750234
21
135.266597
0
LINE
8
Layer 1
10
52.719894
20
137.266058
11
50.867386
21
137.266058
0
LINE
8
Layer 1
10
52.719894
20
139.265520
11
50.867386
21
139.265520
0
LINE
8
Layer 1
10
52.719894
20
141.264981
11
50.867386
21
141.264981
0
LINE
8
Layer 1
10
52.719894
20
143.264442
11
50.867386
21
143.264442
0
LINE
8
Layer 1
10
52.719894
20
145.263903
11
48.750234
21
145.263903
0
LINE
8
Layer 1
10
52.719894
20
147.263364
11
50.867386
21
147.263364
0
LINE
8
Layer 1
10
52.719894
20
149.262826
11
50.867386
21
149.262826
0
LINE
8
Layer 1
10
52.719894
20
151.262287
11
50.867386
21
151.262287
0
LINE
8
Layer 1
10
52.719894
20
153.261748
11
50.867386
21
153.261748
0
LINE
8
Layer 1
10
52.719894
20
155.261209
11
48.750234
21
155.261209
0
LINE
8
Layer 1
10
52.719894
20
157.260670
11
50.867386
21
157.260670
0
LINE
8
Layer 1
10
52.719894
20
159.260132
11
50.867386
21
159.260132
0
LINE
8
Layer 1
10
52.719894
20
161.259593
11
50.867386
21
161.259593
0
LINE
8
Layer 1
10
52.719894
20
163.259054
11
50.867386
21
163.259054
0
LINE
8
Layer 1
10
52.719894
20
165.258515
11
48.750234
21
165.258515
0
LINE
8
Layer 1
10
52.719894
20
167.257976
11
50.867386
21
167.257976
0
LINE
8
Layer 1
10
52.719894
20
169.257438
11
50.867386
21
169.257438
0
LINE
8
Layer 1
10
52.719894
20
171.256899
11
50.867386
21
171.256899
0
LINE
8
Layer 1
10
52.719894
20
173.256360
11
50.867386
21
173.256360
0
LINE
8
Layer 1
10
52.719894
20
174.717219
11
48.750234
21
174.717219
0
LINE
8
Layer 1
10
54.999932
20
186.378460
11
54.463385
21
186.270136
0
LINE
8
Layer 1
10
54.463385
20
186.270136
11
54.025236
21
185.974727
0
LINE
8
Layer 1
10
54.025236
20
185.974727
11
53.729827
21
185.536578
0
LINE
8
Layer 1
10
53.729827
20
185.536578
11
53.621503
21
185.000031
0
LINE
8
Layer 1
10
53.621503
20
185.000031
11
53.729827
21
184.463485
0
LINE
8
Layer 1
10
53.729827
20
184.463485
11
54.025236
21
184.025335
0
LINE
8
Layer 1
10
54.025236
20
184.025335
11
54.463385
21
183.729926
0
LINE
8
Layer 1
10
54.463385
20
183.729926
11
54.999932
21
183.621603
0
LINE
8
Layer 1
10
54.999932
20
183.621603
11
55.536478
21
183.729926
0
LINE
8
Layer 1
10
55.536478
20
183.729926
11
55.974628
21
184.025335
0
LINE
8
Layer 1
10
55.974628
20
184.025335
11
56.270037
21
184.463485
0
LINE
8
Layer 1
10
56.270037
20
184.463485
11
56.378360
21
185.000031
0
LINE
8
Layer 1
10
56.378360
20
185.000031
11
56.273434
21
185.527533
0
LINE
8
Layer 1
10
56.273434
20
185.527533
11
55.974628
21
185.974727
0
LINE
8
Layer 1
10
55.974628
20
185.974727
11
55.527434
21
186.273533
0
LINE
8
Layer 1
10
55.527434
20
186.273533
11
54.999932
21
186.378460
0
LINE
8
Layer 1
10
54.999932
20
186.378460
11
54.999932
21
186.378460
0
LINE
8
Layer 1
10
54.999913
20
66.378613
11
54.234099
21
66.146306
0
LINE
8
Layer 1
10
54.234099
20
66.146306
11
53.726411
21
65.527686
0
LINE
8
Layer 1
10
53.726411
20
65.527686
11
53.647971
21
64.731266
0
LINE
8
Layer 1
10
53.647971
20
64.731266
11
54.025217
21
64.025488
0
LINE
8
Layer 1
10
54.025217
20
64.025488
11
54.730995
21
63.648242
0
LINE
8
Layer 1
10
54.730995
20
63.648242
11
55.527415
21
63.726682
0
LINE
8
Layer 1
10
55.527415
20
63.726682
11
56.146035
21
64.234370
0
LINE
8
Layer 1
10
56.146035
20
64.234370
11
56.378342
21
65.000184
0
LINE
8
Layer 1
10
56.378342
20
65.000184
11
56.270018
21
65.536731
0
LINE
8
Layer 1
10
56.270018
20
65.536731
11
55.974609
21
65.974880
0
LINE
8
Layer 1
10
55.974609
20
65.974880
11
55.536460
21
66.270289
0
LINE
8
Layer 1
10
55.536460
20
66.270289
11
54.999913
21
66.378613
0
LINE
8
Layer 1
10
54.999913
20
66.378613
11
54.999913
21
66.378613
0
LINE
8
Layer 1
10
73.626355
20
179.873590
11
76.373457
21
179.873590
0
LINE
8
Layer 1
10
76.373457
20
179.873590
11
76.373457
21
70.126623
0
LINE
8
Layer 1
10
76.373457
20
70.126623
11
73.626355
21
70.126623
0
LINE
8
Layer 1
10
73.626355
20
70.126623
11
73.626355
21
179.873590
0
LINE
8
Layer 1
10
77.284406
20
174.716939
11
77.284406
21
75.282481
0
LINE
8
Layer 1
10
77.284406
20
174.716939
11
81.254066
21
174.716939
0
LINE
8
Layer 1
10
77.284406
20
172.717478
11
79.136914
21
172.717478
0
LINE
8
Layer 1
10
77.284406
20
170.718016
11
79.136914
21
170.718016
0
LINE
8
Layer 1
10
77.284406
20
168.718555
11
79.136914
21
168.718555
0
LINE
8
Layer 1
10
77.284406
20
166.719094
11
79.136914
21
166.719094
0
LINE
8
Layer 1
10
77.284406
20
164.719633
11
81.254066
21
164.719633
0
LINE
8
Layer 1
10
77.284406
20
162.720172
11
79.136914
21
162.720172
0
LINE
8
Layer 1
10
77.284406
20
160.720710
11
79.136914
21
160.720710
0
LINE
8
Layer 1
10
77.284406
20
158.721249
11
79.136914
21
158.721249
0
LINE
8
Layer 1
10
77.284406
20
156.721788
11
79.136914
21
156.721788
0
LINE
8
Layer 1
10
77.284406
20
154.722327
11
81.254066
21
154.722327
0
LINE
8
Layer 1
10
77.284406
20
152.722866
11
79.136914
21
152.722866
0
LINE
8
Layer 1
10
77.284406
20
150.723404
11
79.136914
21
150.723404
0
LINE
8
Layer 1
10
77.284406
20
148.723943
11
79.136914
21
148.723943
0
LINE
8
Layer 1
10
77.284406
20
146.724482
11
79.136914
21
146.724482
0
LINE
8
Layer 1
10
77.284406
20
144.725021
11
81.254066
21
144.725021
0
LINE
8
Layer 1
10
77.284406
20
142.725560
11
79.136914
21
142.725560
0
LINE
8
Layer 1
10
77.284406
20
140.726098
11
79.136914
21
140.726098
0
LINE
8
Layer 1
10
77.284406
20
138.726637
11
79.136914
21
138.726637
0
LINE
8
Layer 1
10
77.284406
20
136.727176
11
79.136914
21
136.727176
0
LINE
8
Layer 1
10
77.284406
20
134.727715
11
81.254066
21
134.727715
0
LINE
8
Layer 1
10
77.284406
20
132.728254
11
79.136914
21
132.728254
0
LINE
8
Layer 1
10
77.284406
20
130.728792
11
79.136914
21
130.728792
0
LINE
8
Layer 1
10
77.284406
20
128.729331
11
79.136914
21
128.729331
0
LINE
8
Layer 1
10
77.284406
20
126.729870
11
79.136914
21
126.729870
0
LINE
8
Layer 1
10
77.284406
20
124.730409
11
81.254066
21
124.730409
0
LINE
8
Layer 1
10
77.284406
20
122.730948
11
79.136914
21
122.730948
0
LINE
8
Layer 1
10
77.284406
20
120.731486
11
79.136914
21
120.731486
0
LINE
8
Layer 1
10
77.284406
20
118.732025
11
79.136914
21
118.732025
0
LINE
8
Layer 1
10
77.284406
20
116.732564
11
79.136914
21
116.732564
0
LINE
8
Layer 1
10
77.284406
20
114.733103
11
81.254066
21
114.733103
0
LINE
8
Layer 1
10
77.284406
20
112.733642
11
79.136914
21
112.733642
0
LINE
8
Layer 1
10
77.284406
20
110.734180
11
79.136914
21
110.734180
0
LINE
8
Layer 1
10
77.284406
20
108.734719
11
79.136914
21
108.734719
0
LINE
8
Layer 1
10
77.284406
20
106.735258
11
79.136914
21
106.735258
0
LINE
8
Layer 1
10
77.284406
20
104.735797
11
81.254066
21
104.735797
0
LINE
8
Layer 1
10
77.284406
20
102.736336
11
79.136914
21
102.736336
0
LINE
8
Layer 1
10
77.284406
20
100.736874
11
79.136914
21
100.736874
0
LINE
8
Layer 1
10
77.284406
20
98.737413
11
79.136914
21
98.737413
0
LINE
8
Layer 1
10
77.284406
20
96.737952
11
79.136914
21
96.737952
0
LINE
8
Layer 1
10
77.284406
20
94.738491
11
81.254066
21
94.738491
0
LINE
8
Layer 1
10
77.284406
20
92.739030
11
79.136914
21
92.739030
0
LINE
8
Layer 1
10
77.284406
20
90.739568
11
79.136914
21
90.739568
0
LINE
8
Layer 1
10
77.284406
20
88.740107
11
79.136914
21
88.740107
0
LINE
8
Layer 1
10
77.284406
20
86.740646
11
79.136914
21
86.740646
0
LINE
8
Layer 1
10
77.284406
20
84.741185
11
81.254066
21
84.741185
0
LINE
8
Layer 1
10
77.284406
20
82.741724
11
79.136914
21
82.741724
0
LINE
8
Layer 1
10
77.284406
20
80.742262
11
79.136914
21
80.742262
0
LINE
8
Layer 1
10
77.284406
20
78.742801
11
79.136914
21
78.742801
0
LINE
8
Layer 1
10
77.284406
20
76.743340
11
79.136914
21
76.743340
0
LINE
8
Layer 1
10
77.284406
20
75.282481
11
81.254066
21
75.282481
0
LINE
8
Layer 1
10
72.719894
20
75.282761
11
72.719894
21
174.717219
0
LINE
8
Layer 1
10
72.719894
20
75.282761
11
68.750234
21
75.282761
0
LINE
8
Layer 1
10
72.719894
20
77.282222
11
70.867386
21
77.282222
0
LINE
8
Layer 1
10
72.719894
20
79.281684
11
70.867386
21
79.281684
0
LINE
8
Layer 1
10
72.719894
20
81.281145
11
70.867386
21
81.281145
0
LINE
8
Layer 1
10
72.719894
20
83.280606
11
70.867386
21
83.280606
0
LINE
8
Layer 1
10
72.719894
20
85.280067
11
68.750234
21
85.280067
0
LINE
8
Layer 1
10
72.719894
20
87.279528
11
70.867386
21
87.279528
0
LINE
8
Layer 1
10
72.719894
20
89.278990
11
70.867386
21
89.278990
0
LINE
8
Layer 1
10
72.719894
20
91.278451
11
70.867386
21
91.278451
0
LINE
8
Layer 1
10
72.719894
20
93.277912
11
70.867386
21
93.277912
0
LINE
8
Layer 1
10
72.719894
20
95.277373
11
68.750234
21
95.277373
0
LINE
8
Layer 1
10
72.719894
20
97.276834
11
70.867386
21
97.276834
0
LINE
8
Layer 1
10
72.719894
20
99.276296
11
70.867386
21
99.276296
0
LINE
8
Layer 1
10
72.719894
20
101.275757
11
70.867386
21
101.275757
0
LINE
8
Layer 1
10
72.719894
20
103.275218
11
70.867386
21
103.275218
0
LINE
8
Layer 1
10
72.719894
20
105.274679
11
68.750234
21
105.274679
0
LINE
8
Layer 1
10
72.719894
20
107.274140
11
70.867386
21
107.274140
0
LINE
8
Layer 1
10
72.719894
20
109.273602
11
70.867386
21
109.273602
0
LINE
8
Layer 1
10
72.719894
20
111.273063
11
70.867386
21
111.273063
0
LINE
8
Layer 1
10
72.719894
20
113.272524
11
70.867386
21
113.272524
0
LINE
8
Layer 1
10
72.719894
20
115.271985
11
68.750234
21
115.271985
0
LINE
8
Layer 1
10
72.719894
20
117.271446
11
70.867386
21
117.271446
0
LINE
8
Layer 1
10
72.719894
20
119.270908
11
70.867386
21
119.270908
0
LINE
8
Layer 1
10
72.719894
20
121.270369
11
70.867386
21
121.270369
0
LINE
8
Layer 1
10
72.719894
20
123.269830
11
70.867386
21
123.269830
0
LINE
8
Layer 1
10
72.719894
20
125.269291
11
68.750234
21
125.269291
0
LINE
8
Layer 1
10
72.719894
20
127.268752
11
70.867386
21
127.268752
0
LINE
8
Layer 1
10
72.719894
20
129.268214
11
70.867386
21
129.268214
0
LINE
8
Layer 1
10
72.719894
20
131.267675
11
70.867386
21
131.267675
0
LINE
8
Layer 1
10
72.719894
20
133.267136
11
70.867386
21
133.267136
0
LINE
8
Layer 1
10
72.719894
20
135.266597
11
68.750234
21
135.266597
0
LINE
8
Layer 1
10
72.719894
20
137.266058
11
70.867386
21
137.266058
0
LINE
8
Layer 1
10
72.719894
20
139.265520
11
70.867386
21
139.265520
0
LINE
8
Layer 1
10
72.719894
20
141.264981
11
70.867386
21
141.264981
0
LINE
8
Layer 1
10
72.719894
20
143.264442
11
70.867386
21
143.264442
0
LINE
8
Layer 1
10
72.719894
20
145.263903
11
68.750234
21
145.263903
0
LINE
8
Layer 1
10
72.719894
20
147.263364
11
70.867386
21
147.263364
0
LINE
8
Layer 1
10
72.719894
20
149.262826
11
70.867386
21
149.262826
0
LINE
8
Layer 1
10
72.719894
20
151.262287
11
70.867386
21
151.262287
0
LINE
8
Layer 1
10
72.719894
20
153.261748
11
70.867386
21
153.261748
0
LINE
8
Layer 1
10
72.719894
20
155.261209
11
68.750234
21
155.261209
0
LINE
8
Layer 1
10
72.719894
20
157.260670
11
70.867386
21
157.260670
0
LINE
8
Layer 1
10
72.719894
20
159.260132
11
70.867386
21
159.260132
0
LINE
8
Layer 1
10
72.719894
20
161.259593
11
70.867386
21
161.259593
0
LINE
8
Layer 1
10
72.719894
20
163.259054
11
70.867386
21
163.259054
0
LINE
8
Layer 1
10
72.719894
20
165.258515
11
68.750234
21
165.258515
0
LINE
8
Layer 1
10
72.719894
20
167.257976
11
70.867386
21
167.257976
0
LINE
8
Layer 1
10
72.719894
20
169.257438
11
70.867386
21
169.257438
0
LINE
8
Layer 1
10
72.719894
20
171.256899
11
70.867386
21
171.256899
0
LINE
8
Layer 1
10
72.719894
20
173.256360
11
70.867386
21
173.256360
0
LINE
8
Layer 1
10
72.719894
20
174.717219
11
68.750234
21
174.717219
0
LINE
8
Layer 1
10
74.999906
20
186.378460
11
74.234092
21
186.146153
0
LINE
8
Layer 1
10
74.234092
20
186.146153
11
73.726404
21
185.527533
0
LINE
8
Layer 1
10
73.726404
20
185.527533
11
73.647964
21
184.731113
0
LINE
8
Layer 1
10
73.647964
20
184.731113
11
74.025210
21
184.025335
0
LINE
8
Layer 1
10
74.025210
20
184.025335
11
74.730988
21
183.648089
0
LINE
8
Layer 1
10
74.730988
20
183.648089
11
75.527408
21
183.726529
0
LINE
8
Layer 1
10
75.527408
20
183.726529
11
76.146028
21
184.234217
0
LINE
8
Layer 1
10
76.146028
20
184.234217
11
76.378335
21
185.000031
0
LINE
8
Layer 1
10
76.378335
20
185.000031
11
76.270011
21
185.536578
0
LINE
8
Layer 1
10
76.270011
20
185.536578
11
75.974602
21
185.974727
0
LINE
8
Layer 1
10
75.974602
20
185.974727
11
75.536453
21
186.270136
0
LINE
8
Layer 1
10
75.536453
20
186.270136
11
74.999906
21
186.378460
0
LINE
8
Layer 1
10
74.999906
20
186.378460
11
74.999906
21
186.378460
0
LINE
8
Layer 1
10
74.999890
20
66.378613
11
74.234077
21
66.146306
0
LINE
8
Layer 1
10
74.234077
20
66.146306
11
73.726389
21
65.527686
0
LINE
8
Layer 1
10
73.726389
20
65.527686
11
73.647948
21
64.731266
0
LINE
8
Layer 1
10
73.647948
20
64.731266
11
74.025194
21
64.025488
0
LINE
8
Layer 1
10
74.025194
20
64.025488
11
74.730972
21
63.648242
0
LINE
8
Layer 1
10
74.730972
20
63.648242
11
75.527392
21
63.726682
0
LINE
8
Layer 1
10
75.527392
20
63.726682
11
76.146012
21
64.234370
0
LINE
8
Layer 1
10
76.146012
20
64.234370
11
76.378319
21
65.000184
0
LINE
8
Layer 1
10
76.378319
20
65.000184
11
76.269995
21
65.536731
0
LINE
8
Layer 1
10
76.269995
20
65.536731
11
75.974587
21
65.974880
0
LINE
8
Layer 1
10
75.974587
20
65.974880
11
75.536437
21
66.270289
0
LINE
8
Layer 1
10
75.536437
20
66.270289
11
74.999890
21
66.378613
0
LINE
8
Layer 1
10
74.999890
20
66.378613
11
74.999890
21
66.378613
0
LINE
8
Layer 1
10
93.626330
20
179.873590
11
96.373432
21
179.873590
0
LINE
8
Layer 1
10
96.373432
20
179.873590
11
96.373432
21
70.126623
0
LINE
8
Layer 1
10
96.373432
20
70.126623
11
93.626330
21
70.126623
0
LINE
8
Layer 1
10
93.626330
20
70.126623
11
93.626330
21
179.873590
0
LINE
8
Layer 1
10
97.284506
20
174.716939
11
97.284506
21
75.282481
0
LINE
8
Layer 1
10
97.284506
20
174.716939
11
101.254166
21
174.716939
0
LINE
8
Layer 1
10
97.284506
20
172.717478
11
99.137014
21
172.717478
0
LINE
8
Layer 1
10
97.284506
20
170.718016
11
99.137014
21
170.718016
0
LINE
8
Layer 1
10
97.284506
20
168.718555
11
99.137014
21
168.718555
0
LINE
8
Layer 1
10
97.284506
20
166.719094
11
99.137014
21
166.719094
0
LINE
8
Layer 1
10
97.284506
20
164.719633
11
101.254166
21
164.719633
0
LINE
8
Layer 1
10
97.284506
20
162.720172
11
99.137014
21
162.720172
0
LINE
8
Layer 1
10
97.284506
20
160.720710
11
99.137014
21
160.720710
0
LINE
8
Layer 1
10
97.284506
20
158.721249
11
99.137014
21
158.721249
0
LINE
8
Layer 1
10
97.284506
20
156.721788
11
99.137014
21
156.721788
0
LINE
8
Layer 1
10
97.284506
20
154.722327
11
101.254166
21
154.722327
0
LINE
8
Layer 1
10
97.284506
20
152.722866
11
99.137014
21
152.722866
0
LINE
8
Layer 1
10
97.284506
20
150.723404
11
99.137014
21
150.723404
0
LINE
8
Layer 1
10
97.284506
20
148.723943
11
99.137014
21
148.723943
0
LINE
8
Layer 1
10
97.284506
20
146.724482
11
99.137014
21
146.724482
0
LINE
8
Layer 1
10
97.284506
20
144.725021
11
101.254166
21
144.725021
0
LINE
8
Layer 1
10
97.284506
20
142.725560
11
99.137014
21
142.725560
0
LINE
8
Layer 1
10
97.284506
20
140.726098
11
99.137014
21
140.726098
0
LINE
8
Layer 1
10
97.284506
20
138.726637
11
99.137014
21
138.726637
0
LINE
8
Layer 1
10
97.284506
20
136.727176
11
99.137014
21
136.727176
0
LINE
8
Layer 1
10
97.284506
20
134.727715
11
101.254166
21
134.727715
0
LINE
8
Layer 1
10
97.284506
20
132.728254
11
99.137014
21
132.728254
0
LINE
8
Layer 1
10
97.284506
20
130.728792
11
99.137014
21
130.728792
0
LINE
8
Layer 1
10
97.284506
20
128.729331
11
99.137014
21
128.729331
0
LINE
8
Layer 1
10
97.284506
20
126.729870
11
99.137014
21
126.729870
0
LINE
8
Layer 1
10
97.284506
20
124.730409
11
101.254166
21
124.730409
0
LINE
8
Layer 1
10
97.284506
20
122.730948
11
99.137014
21
122.730948
0
LINE
8
Layer 1
10
97.284506
20
120.731486
11
99.137014
21
120.731486
0
LINE
8
Layer 1
10
97.284506
20
118.732025
11
99.137014
21
118.732025
0
LINE
8
Layer 1
10
97.284506
20
116.732564
11
99.137014
21
116.732564
0
LINE
8
Layer 1
10
97.284506
20
114.733103
11
101.254166
21
114.733103
0
LINE
8
Layer 1
10
97.284506
20
112.733642
11
99.137014
21
112.733642
0
LINE
8
Layer 1
10
97.284506
20
110.734180
11
99.137014
21
110.734180
0
LINE
8
Layer 1
10
97.284506
20
108.734719
11
99.137014
21
108.734719
0
LINE
8
Layer 1
10
97.284506
20
106.735258
11
99.137014
21
106.735258
0
LINE
8
Layer 1
10
97.284506
20
104.735797
11
101.254166
21
104.735797
0
LINE
8
Layer 1
10
97.284506
20
102.736336
11
99.137014
21
102.736336
0
LINE
8
Layer 1
10
97.284506
20
100.736874
11
99.137014
21
100.736874
0
LINE
8
Layer 1
10
97.284506
20
98.737413
11
99.137014
21
98.737413
0
LINE
8
Layer 1
10
97.284506
20
96.737952
11
99.137014
21
96.737952
0
LINE
8
Layer 1
10
97.284506
20
94.738491
11
101.254166
21
94.738491
0
LINE
8
Layer 1
10
97.284506
20
92.739030
11
99.137014
21
92.739030
0
LINE
8
Layer 1
10
97.284506
20
90.739568
11
99.137014
21
90.739568
0
LINE
8
Layer 1
10
97.284506
20
88.740107
11
99.137014
21
88.740107
0
LINE
8
Layer 1
10
97.284506
20
86.740646
11
99.137014
21
86.740646
0
LINE
8
Layer 1
10
97.284506
20
84.741185
11
101.254166
21
84.741185
0
LINE
8
Layer 1
10
97.284506
20
82.741724
11
99.137014
21
82.741724
0
LINE
8
Layer 1
10
97.284506
20
80.742262
11
99.137014
21
80.742262
0
LINE
8
Layer 1
10
97.284506
20
78.742801
11
99.137014
21
78.742801
0
LINE
8
Layer 1
10
97.284506
20
76.743340
11
99.137014
21
76.743340
0
LINE
8
Layer 1
10
97.284506
20
75.282481
11
101.254166
21
75.282481
0
LINE
8
Layer 1
10
92.719894
20
75.282761
11
92.719894
21
174.717219
0
LINE
8
Layer 1
10
92.719894
20
75.282761
11
88.750234
21
75.282761
0
LINE
8
Layer 1
10
92.719894
20
77.282222
11
90.867386
21
77.282222
0
LINE
8
Layer 1
10
92.719894
20
79.281684
11
90.867386
21
79.281684
0
LINE
8
Layer 1
10
92.719894
20
81.281145
11
90.867386
21
81.281145
0
LINE
8
Layer 1
10
92.719894
20
83.280606
11
90.867386
21
83.280606
0
LINE
8
Layer 1
10
92.719894
20
85.280067
11
88.750234
21
85.280067
0
LINE
8
Layer 1
10
92.719894
20
87.279528
11
90.867386
21
87.279528
0
LINE
8
Layer 1
10
92.719894
20
89.278990
11
90.867386
21
89.278990
0
LINE
8
Layer 1
10
92.719894
20
91.278451
11
90.867386
21
91.278451
0
LINE
8
Layer 1
10
92.719894
20
93.277912
11
90.867386
21
93.277912
0
LINE
8
Layer 1
10
92.719894
20
95.277373
11
88.750234
21
95.277373
0
LINE
8
Layer 1
10
92.719894
20
97.276834
11
90.867386
21
97.276834
0
LINE
8
Layer 1
10
92.719894
20
99.276296
11
90.867386
21
99.276296
0
LINE
8
Layer 1
10
92.719894
20
101.275757
11
90.867386
21
101.275757
0
LINE
8
Layer 1
10
92.719894
20
103.275218
11
90.867386
21
103.275218
0
LINE
8
Layer 1
10
92.719894
20
105.274679
11
88.750234
21
105.274679
0
LINE
8
Layer 1
10
92.719894
20
107.274140
11
90.867386
21
107.274140
0
LINE
8
Layer 1
10
92.719894
20
109.273602
11
90.867386
21
109.273602
0
LINE
8
Layer 1
10
92.719894
20
111.273063
11
90.867386
21
111.273063
0
LINE
8
Layer 1
10
92.719894
20
113.272524
11
90.867386
21
113.272524
0
LINE
8
Layer 1
10
92.719894
20
115.271985
11
88.750234
21
115.271985
0
LINE
8
Layer 1
10
92.719894
20
117.271446
11
90.867386
21
117.271446
0
LINE
8
Layer 1
10
92.719894
20
119.270908
11
90.867386
21
119.270908
0
LINE
8
Layer 1
10
92.719894
20
121.270369
11
90.867386
21
121.270369
0
LINE
8
Layer 1
10
92.719894
20
123.269830
11
90.867386
21
123.269830
0
LINE
8
Layer 1
10
92.719894
20
125.269291
11
88.750234
21
125.269291
0
LINE
8
Layer 1
10
92.719894
20
127.268752
11
90.867386
21
127.268752
0
LINE
8
Layer 1
10
92.719894
20
129.268214
11
90.867386
21
129.268214
0
LINE
8
Layer 1
10
92.719894
20
131.267675
11
90.867386
21
131.267675
0
LINE
8
Layer 1
10
92.719894
20
133.267136
11
90.867386
21
133.267136
0
LINE
8
Layer 1
10
92.719894
20
135.266597
11
88.750234
21
135.266597
0
LINE
8
Layer 1
10
92.719894
20
137.266058
11
90.867386
21
137.266058
0
LINE
8
Layer 1
10
92.719894
20
139.265520
11
90.867386
21
139.265520
0
LINE
8
Layer 1
10
92.719894
20
141.264981
11
90.867386
21
141.264981
0
LINE
8
Layer 1
10
92.719894
20
143.264442
11
90.867386
21
143.264442
0
LINE
8
Layer 1
10
92.719894
20
145.263903
11
88.750234
21
145.263903
0
LINE
8
Layer 1
10
92.719894
20
147.263364
11
90.867386
21
147.263364
0
LINE
8
Layer 1
10
92.719894
20
149.262826
11
90.867386
21
149.262826
0
LINE
8
Layer 1
10
92.719894
20
151.262287
11
90.867386
21
151.262287
0
LINE
8
Layer 1
10
92.719894
20
153.261748
11
90.867386
21
153.261748
0
LINE
8
Layer 1
10
92.719894
20
155.261209
11
88.750234
21
155.261209
0
LINE
8
Layer 1
10
92.719894
20
157.260670
11
90.867386
21
157.260670
0
LINE
8
Layer 1
10
92.719894
20
159.260132
11
90.867386
21
159.260132
0
LINE
8
Layer 1
10
92.719894
20
161.259593
11
90.867386
21
161.259593
0
LINE
8
Layer 1
10
92.719894
20
163.259054
11
90.867386
21
163.259054
0
LINE
8
Layer 1
10
92.719894
20
165.258515
11
88.750234
21
165.258515
0
LINE
8
Layer 1
10
92.719894
20
167.257976
11
90.867386
21
167.257976
0
LINE
8
Layer 1
10
92.719894
20
169.257438
11
90.867386
21
169.257438
0
LINE
8
Layer 1
10
92.719894
20
171.256899
11
90.867386
21
171.256899
0
LINE
8
Layer 1
10
92.719894
20
173.256360
11
90.867386
21
173.256360
0
LINE
8
Layer 1
10
92.719894
20
174.717219
11
88.750234
21
174.717219
0
LINE
8
Layer 1
10
94.999878
20
186.378460
11
94.234064
21
186.146153
0
LINE
8
Layer 1
10
94.234064
20
186.146153
11
93.726376
21
185.527533
0
LINE
8
Layer 1
10
93.726376
20
185.527533
11
93.647936
21
184.731113
0
LINE
8
Layer 1
10
93.647936
20
184.731113
11
94.025182
21
184.025335
0
LINE
8
Layer 1
10
94.025182
20
184.025335
11
94.730960
21
183.648089
0
LINE
8
Layer 1
10
94.730960
20
183.648089
11
95.527380
21
183.726529
0
LINE
8
Layer 1
10
95.527380
20
183.726529
11
96.146000
21
184.234217
0
LINE
8
Layer 1
10
96.146000
20
184.234217
11
96.378307
21
185.000031
0
LINE
8
Layer 1
10
96.378307
20
185.000031
11
96.273380
21
185.527533
0
LINE
8
Layer 1
10
96.273380
20
185.527533
11
95.974574
21
185.974727
0
LINE
8
Layer 1
10
95.974574
20
185.974727
11
95.527380
21
186.273533
0
LINE
8
Layer 1
10
95.527380
20
186.273533
11
94.999878
21
186.378460
0
LINE
8
Layer 1
10
94.999878
20
186.378460
11
94.999878
21
186.378460
0
LINE
8
Layer 1
10
94.999862
20
66.378613
11
94.234048
21
66.146306
0
LINE
8
Layer 1
10
94.234048
20
66.146306
11
93.726360
21
65.527686
0
LINE
8
Layer 1
10
93.726360
20
65.527686
11
93.647920
21
64.731266
0
LINE
8
Layer 1
10
93.647920
20
64.731266
11
94.025166
21
64.025488
0
LINE
8
Layer 1
10
94.025166
20
64.025488
11
94.730944
21
63.648242
0
LINE
8
Layer 1
10
94.730944
20
63.648242
11
95.527364
21
63.726682
0
LINE
8
Layer 1
10
95.527364
20
63.726682
11
96.145984
21
64.234370
0
LINE
8
Layer 1
10
96.145984
20
64.234370
11
96.378291
21
65.000184
0
LINE
8
Layer 1
10
96.378291
20
65.000184
11
96.273364
21
65.527686
0
LINE
8
Layer 1
10
96.273364
20
65.527686
11
95.974558
21
65.974880
0
LINE
8
Layer 1
10
95.974558
20
65.974880
11
95.527364
21
66.273686
0
LINE
8
Layer 1
10
95.527364
20
66.273686
11
94.999862
21
66.378613
0
LINE
8
Layer 1
10
94.999862
20
66.378613
11
94.999862
21
66.378613
0
LINE
8
Layer 1
10
113.626302
20
179.873590
11
116.373404
21
179.873590
0
LINE
8
Layer 1
10
116.373404
20
179.873590
11
116.373404
21
70.126623
0
LINE
8
Layer 1
10
116.373404
20
70.126623
11
113.626302
21
70.126623
0
LINE
8
Layer 1
10
113.626302
20
70.126623
11
113.626302
21
179.873590
0
LINE
8
Layer 1
10
117.284306
20
174.716939
11
117.284306
21
75.282481
0
LINE
8
Layer 1
10
117.284306
20
174.716939
11
121.253966
21
174.716939
0
LINE
8
Layer 1
10
117.284306
20
172.717478
11
119.136814
21
172.717478
0
LINE
8
Layer 1
10
117.284306
20
170.718016
11
119.136814
21
170.718016
0
LINE
8
Layer 1
10
117.284306
20
168.718555
11
119.136814
21
168.718555
0
LINE
8
Layer 1
10
117.284306
20
166.719094
11
119.136814
21
166.719094
0
LINE
8
Layer 1
10
117.284306
20
164.719633
11
121.253966
21
164.719633
0
LINE
8
Layer 1
10
117.284306
20
162.720172
11
119.136814
21
162.720172
0
LINE
8
Layer 1
10
117.284306
20
160.720710
11
119.136814
21
160.720710
0
LINE
8
Layer 1
10
117.284306
20
158.721249
11
119.136814
21
158.721249
0
LINE
8
Layer 1
10
117.284306
20
156.721788
11
119.136814
21
156.721788
0
LINE
8
Layer 1
10
117.284306
20
154.722327
11
121.253966
21
154.722327
0
LINE
8
Layer 1
10
117.284306
20
152.722866
11
119.136814
21
152.722866
0
LINE
8
Layer 1
10
117.284306
20
150.723404
11
119.136814
21
150.723404
0
LINE
8
Layer 1
10
117.284306
20
148.723943
11
119.136814
21
148.723943
0
LINE
8
Layer 1
10
117.284306
20
146.724482
11
119.136814
21
146.724482
0
LINE
8
Layer 1
10
117.284306
20
144.725021
11
121.253966
21
144.725021
0
LINE
8
Layer 1
10
117.284306
20
142.725560
11
119.136814
21
142.725560
0
LINE
8
Layer 1
10
117.284306
20
140.726098
11
119.136814
21
140.726098
0
LINE
8
Layer 1
10
117.284306
20
138.726637
11
119.136814
21
138.726637
0
LINE
8
Layer 1
10
117.284306
20
136.727176
11
119.136814
21
136.727176
0
LINE
8
Layer 1
10
117.284306
20
134.727715
11
121.253966
21
134.727715
0
LINE
8
Layer 1
10
117.284306
20
132.728254
11
119.136814
21
132.728254
0
LINE
8
Layer 1
10
117.284306
20
130.728792
11
119.136814
21
130.728792
0
LINE
8
Layer 1
10
117.284306
20
128.729331
11
119.136814
21
128.729331
0
LINE
8
Layer 1
10
117.284306
20
126.729870
11
119.136814
21
126.729870
0
LINE
8
Layer 1
10
117.284306
20
124.730409
11
121.253966
21
124.730409
0
LINE
8
Layer 1
10
117.284306
20
122.730948
11
119.136814
21
122.730948
0
LINE
8
Layer 1
10
117.284306
20
120.731486
11
119.136814
21
120.731486
0
LINE
8
Layer 1
10
117.284306
20
118.732025
11
119.136814
21
118.732025
0
LINE
8
Layer 1
10
117.284306
20
116.732564
11
119.136814
21
116.732564
0
LINE
8
Layer 1
10
117.284306
20
114.733103
11
121.253966
21
114.733103
0
LINE
8
Layer 1
10
117.284306
20
112.733642
11
119.136814
21
112.733642
0
LINE
8
Layer 1
10
117.284306
20
110.734180
11
119.136814
21
110.734180
0
LINE
8
Layer 1
10
117.284306
20
108.734719
11
119.136814
21
108.734719
0
LINE
8
Layer 1
10
117.284306
20
106.735258
11
119.136814
21
106.735258
0
LINE
8
Layer 1
10
117.284306
20
104.735797
11
121.253966
21
104.735797
0
LINE
8
Layer 1
10
117.284306
20
102.736336
11
119.136814
21
102.736336
0
LINE
8
Layer 1
10
117.284306
20
100.736874
11
119.136814
21
100.736874
0
LINE
8
Layer 1
10
117.284306
20
98.737413
11
119.136814
21
98.737413
0
LINE
8
Layer 1
10
117.284306
20
96.737952
11
119.136814
21
96.737952
0
LINE
8
Layer 1
10
117.284306
20
94.738491
11
121.253966
21
94.738491
0
LINE
8
Layer 1
10
117.284306
20
92.739030
11
119.136814
21
92.739030
0
LINE
8
Layer 1
10
117.284306
20
90.739568
11
119.136814
21
90.739568
0
LINE
8
Layer 1
10
117.284306
20
88.740107
11
119.136814
21
88.740107
0
LINE
8
Layer 1
10
117.284306
20
86.740646
11
119.136814
21
86.740646
0
LINE
8
Layer 1
10
117.284306
20
84.741185
11
121.253966
21
84.741185
0
LINE
8
Layer 1
10
117.284306
20
82.741724
11
119.136814
21
82.741724
0
LINE
8
Layer 1
10
117.284306
20
80.742262
11
119.136814
21
80.742262
0
LINE
8
Layer 1
10
117.284306
20
78.742801
11
119.136814
21
78.742801
0
LINE
8
Layer 1
10
117.284306
20
76.743340
11
119.136814
21
76.743340
0
LINE
8
Layer 1
10
117.284306
20
75.282481
11
121.253966
21
75.282481
0
LINE
8
Layer 1
10
112.719894
20
75.282761
11
112.719894
21
174.717219
0
LINE
8
Layer 1
10
112.719894
20
75.282761
11
108.750234
21
75.282761
0
LINE
8
Layer 1
10
112.719894
20
77.282222
11
110.867386
21
77.282222
0
LINE
8
Layer 1
10
112.719894
20
79.281684
11
110.867386
21
79.281684
0
LINE
8
Layer 1
10
112.719894
20
81.281145
11
110.867386
21
81.281145
0
LINE
8
Layer 1
10
112.719894
20
83.280606
11
110.867386
21
83.280606
0
LINE
8
Layer 1
10
112.719894
20
85.280067
11
108.750234
21
85.280067
0
LINE
8
Layer 1
10
112.719894
20
87.279528
11
110.867386
21
87.279528
0
LINE
8
Layer 1
10
112.719894
20
89.278990
11
110.867386
21
89.278990
0
LINE
8
Layer 1
10
112.719894
20
91.278451
11
110.867386
21
91.278451
0
LINE
8
Layer 1
10
112.719894
20
93.277912
11
110.867386
21
93.277912
0
LINE
8
Layer 1
10
112.719894
20
95.277373
11
108.750234
21
95.277373
0
LINE
8
Layer 1
10
112.719894
20
97.276834
11
110.867386
21
97.276834
0
LINE
8
Layer 1
10
112.719894
20
99.276296
11
110.867386
21
99.276296
0
LINE
8
Layer 1
10
112.719894
20
101.275757
11
110.867386
21
101.275757
0
LINE
8
Layer 1
10
112.719894
20
103.275218
11
110.867386
21
103.275218
0
LINE
8
Layer 1
10
112.719894
20
105.274679
11
108.750234
21
105.274679
0
LINE
8
Layer 1
10
112.719894
20
107.274140
11
110.867386
21
107.274140
0
LINE
8
Layer 1
10
112.719894
20
109.273602
11
110.867386
21
109.273602
0
LINE
8
Layer 1
10
112.719894
20
111.273063
11
110.867386
21
111.273063
0
LINE
8
Layer 1
10
112.719894
20
113.272524
11
110.867386
21
113.272524
0
LINE
8
Layer 1
10
112.719894
20
115.271985
11
108.750234
21
115.271985
0
LINE
8
Layer 1
10
112.719894
20
117.271446
11
110.867386
21
117.271446
0
LINE
8
Layer 1
10
112.719894
20
119.270908
11
110.867386
21
119.270908
0
LINE
8
Layer 1
10
112.719894
20
121.270369
11
110.867386
21
121.270369
0
LINE
8
Layer 1
10
112.719894
20
123.269830
11
110.867386
21
123.269830
0
LINE
8
Layer 1
10
112.719894
20
125.269291
11
108.750234
21
125.269291
0
LINE
8
Layer 1
10
112.719894
20
127.268752
11
110.867386
21
127.268752
0
LINE
8
Layer 1
10
112.719894
20
129.268214
11
110.867386
21
129.268214
0
LINE
8
Layer 1
10
112.719894
20
131.267675
11
110.867386
21
131.267675
0
LINE
8
Layer 1
10
112.719894
20
133.267136
11
110.867386
21
133.267136
0
LINE
8
Layer 1
10
112.719894
20
135.266597
11
108.750234
21
135.266597
0
LINE
8
Layer 1
10
112.719894
20
137.266058
11
110.867386
21
137.266058
0
LINE
8
Layer 1
10
112.719894
20
139.265520
11
110.867386
21
139.265520
0
LINE
8
Layer 1
10
112.719894
20
141.264981
11
110.867386
21
141.264981
0
LINE
8
Layer 1
10
112.719894
20
143.264442
11
110.867386
21
143.264442
0
LINE
8
Layer 1
10
112.719894
20
145.263903
11
108.750234
21
145.263903
0
LINE
8
Layer 1
10
112.719894
20
147.263364
11
110.867386
21
147.263364
0
LINE
8
Layer 1
10
112.719894
20
149.262826
11
110.867386
21
149.262826
0
LINE
8
Layer 1
10
112.719894
20
151.262287
11
110.867386
21
151.262287
0
LINE
8
Layer 1
10
112.719894
20
153.261748
11
110.867386
21
153.261748
0
LINE
8
Layer 1
10
112.719894
20
155.261209
11
108.750234
21
155.261209
0
LINE
8
Layer 1
10
112.719894
20
157.260670
11
110.867386
21
157.260670
0
LINE
8
Layer 1
10
112.719894
20
159.260132
11
110.867386
21
159.260132
0
LINE
8
Layer 1
10
112.719894
20
161.259593
11
110.867386
21
161.259593
0
LINE
8
Layer 1
10
112.719894
20
163.259054
11
110.867386
21
163.259054
0
LINE
8
Layer 1
10
112.719894
20
165.258515
11
108.750234
21
165.258515
0
LINE
8
Layer 1
10
112.719894
20
167.257976
11
110.867386
21
167.257976
0
LINE
8
Layer 1
10
112.719894
20
169.257438
11
110.867386
21
169.257438
0
LINE
8
Layer 1
10
112.719894
20
171.256899
11
110.867386
21
171.256899
0
LINE
8
Layer 1
10
112.719894
20
173.256360
11
110.867386
21
173.256360
0
LINE
8
Layer 1
10
112.719894
20
174.717219
11
108.750234
21
174.717219
0
LINE
8
Layer 1
10
114.999853
20
186.378460
11
114.234039
21
186.146153
0
LINE
8
Layer 1
10
114.234039
20
186.146153
11
113.726351
21
185.527533
0
LINE
8
Layer 1
10
113.726351
20
185.527533
11
113.647910
21
184.731113
0
LINE
8
Layer 1
10
113.647910
20
184.731113
11
114.025157
21
184.025335
0
LINE
8
Layer 1
10
114.025157
20
184.025335
11
114.730935
21
183.648089
0
LINE
8
Layer 1
10
114.730935
20
183.648089
11
115.527354
21
183.726529
0
LINE
8
Layer 1
10
115.527354
20
183.726529
11
116.145974
21
184.234217
0
LINE
8
Layer 1
10
116.145974
20
184.234217
11
116.378281
21
185.000031
0
LINE
8
Layer 1
10
116.378281
20
185.000031
11
116.273355
21
185.527533
0
LINE
8
Layer 1
10
116.273355
20
185.527533
11
115.974549
21
185.974727
0
LINE
8
Layer 1
10
115.974549
20
185.974727
11
115.527354
21
186.273533
0
LINE
8
Layer 1
10
115.527354
20
186.273533
11
114.999853
21
186.378460
0
LINE
8
Layer 1
10
114.999853
20
186.378460
11
114.999853
21
186.378460
0
LINE
8
Layer 1
10
114.999829
20
66.378613
11
114.234015
21
66.146306
0
LINE
8
Layer 1
10
114.234015
20
66.146306
11
113.726327
21
65.527686
0
LINE
8
Layer 1
10
113.726327
20
65.527686
11
113.647886
21
64.731266
0
LINE
8
Layer 1
10
113.647886
20
64.731266
11
114.025133
21
64.025488
0
LINE
8
Layer 1
10
114.025133
20
64.025488
11
114.730911
21
63.648242
0
LINE
8
Layer 1
10
114.730911
20
63.648242
11
115.527331
21
63.726682
0
LINE
8
Layer 1
10
115.527331
20
63.726682
11
116.145950
21
64.234370
0
LINE
8
Layer 1
10
116.145950
20
64.234370
11
116.378257
21
65.000184
0
LINE
8
Layer 1
10
116.378257
20
65.000184
11
116.273331
21
65.527686
0
LINE
8
Layer 1
10
116.273331
20
65.527686
11
115.974525
21
65.974880
0
LINE
8
Layer 1
10
115.974525
20
65.974880
11
115.527331
21
66.273686
0
LINE
8
Layer 1
10
115.527331
20
66.273686
11
114.999829
21
66.378613
0
LINE
8
Layer 1
10
114.999829
20
66.378613
11
114.999829
21
66.378613
0
LINE
8
Layer 1
10
43.132239
20
52.867908
11
46.132234
21
52.867908
0
LINE
8
Layer 1
10
46.132234
20
52.867908
11
46.132234
21
49.867910
0
LINE
8
Layer 1
10
46.132234
20
49.867910
11
52.132228
21
49.867910
0
LINE
8
Layer 1
10
52.132228
20
49.867910
11
52.132228
21
52.867908
0
LINE
8
Layer 1
10
52.132228
20
52.867908
11
58.132219
21
52.867908
0
LINE
8
Layer 1
10
58.132219
20
52.867908
11
58.132219
21
49.867910
0
LINE
8
Layer 1
10
58.132219
20
49.867910
11
64.132210
21
49.867910
0
LINE
8
Layer 1
10
64.132210
20
49.867910
11
64.132210
21
52.867908
0
LINE
8
Layer 1
10
64.132210
20
52.867908
11
70.132201
21
52.867908
0
LINE
8
Layer 1
10
70.132201
20
52.867908
11
70.132201
21
49.867910
0
LINE
8
Layer 1
10
70.132201
20
49.867910
11
76.132195
21
49.867910
0
LINE
8
Layer 1
10
76.132195
20
49.867910
11
76.132195
21
52.867908
0
LINE
8
Layer 1
10
76.132195
20
52.867908
11
82.132188
21
52.867908
0
LINE
8
Layer 1
10
82.132188
20
52.867908
11
82.132188
21
49.867910
0
LINE
8
Layer 1
10
82.132188
20
49.867910
11
88.132179
21
49.867910
0
LINE
8
Layer 1
10
88.132179
20
49.867910
11
88.132179
21
52.867908
0
LINE
8
Layer 1
10
88.132179
20
52.867908
11
94.132173
21
52.867908
0
LINE
8
Layer 1
10
94.132173
20
52.867908
11
94.132173
21
49.867910
0
LINE
8
Layer 1
10
94.132173
20
49.867910
11
100.132164
21
49.867910
0
LINE
8
Layer 1
10
100.132164
20
49.867910
11
100.132164
21
52.867908
0
LINE
8
Layer 1
10
100.132164
20
52.867908
11
106.132158
21
52.867908
0
LINE
8
Layer 1
10
106.132158
20
52.867908
11
106.132158
21
49.867910
0
LINE
8
Layer 1
10
106.132158
20
49.867910
11
112.132149
21
49.867910
0
LINE
8
Layer 1
10
112.132149
20
49.867910
11
112.132149
21
52.867908
0
LINE
8
Layer 1
10
112.132149
20
52.867908
11
118.132142
21
52.867908
0
LINE
8
Layer 1
10
118.132142
20
52.867908
11
118.132142
21
49.867910
0
LINE
8
Layer 1
10
118.132142
20
49.867910
11
124.132133
21
49.867910
0
LINE
8
Layer 1
10
124.132133
20
49.867910
11
124.132133
21
52.867908
0
LINE
8
Layer 1
10
124.132133
20
52.867908
11
127.132129
21
52.867908
0
LINE
8
Layer 1
10
127.132129
20
52.867908
11
127.132129
21
59.027900
0
LINE
8
Layer 1
10
127.132129
20
59.027900
11
130.132127
21
59.027900
0
LINE
8
Layer 1
10
130.132127
20
59.027900
11
130.132127
21
65.187890
0
LINE
8
Layer 1
10
130.132127
20
65.187890
11
127.132129
21
65.187890
0
LINE
8
Layer 1
10
127.132129
20
65.187890
11
127.132129
21
71.347882
0
LINE
8
Layer 1
10
127.132129
20
71.347882
11
130.132127
21
71.347882
0
LINE
8
Layer 1
10
130.132127
20
71.347882
11
130.132127
21
77.507875
0
LINE
8
Layer 1
10
130.132127
20
77.507875
11
127.132129
21
77.507875
0
LINE
8
Layer 1
10
127.132129
20
77.507875
11
127.132129
21
83.667867
0
LINE
8
Layer 1
10
127.132129
20
83.667867
11
130.132127
21
83.667867
0
LINE
8
Layer 1
10
130.132127
20
83.667867
11
130.132127
21
89.827859
0
LINE
8
Layer 1
10
130.132127
20
89.827859
11
127.132129
21
89.827859
0
LINE
8
Layer 1
10
127.132129
20
89.827859
11
127.132129
21
95.987852
0
LINE
8
Layer 1
10
127.132129
20
95.987852
11
130.132127
21
95.987852
0
LINE
8
Layer 1
10
130.132127
20
95.987852
11
130.132127
21
102.147844
0
LINE
8
Layer 1
10
130.132127
20
102.147844
11
127.132129
21
102.147844
0
LINE
8
Layer 1
10
127.132129
20
102.147844
11
127.132129
21
108.307836
0
LINE
8
Layer 1
10
127.132129
20
108.307836
11
130.132127
21
108.307836
0
LINE
8
Layer 1
10
130.132127
20
108.307836
11
130.132127
21
114.467828
0
LINE
8
Layer 1
10
130.132127
20
114.467828
11
127.132129
21
114.467828
0
LINE
8
Layer 1
10
127.132129
20
114.467828
11
127.132129
21
120.627821
0
LINE
8
Layer 1
10
127.132129
20
120.627821
11
130.132127
21
120.627821
0
LINE
8
Layer 1
10
130.132127
20
120.627821
11
130.132127
21
126.787813
0
LINE
8
Layer 1
10
130.132127
20
126.787813
11
127.132129
21
126.787813
0
LINE
8
Layer 1
10
127.132129
20
126.787813
11
127.132129
21
132.947805
0
LINE
8
Layer 1
10
127.132129
20
132.947805
11
130.132127
21
132.947805
0
LINE
8
Layer 1
10
130.132127
20
132.947805
11
130.132127
21
139.107798
0
LINE
8
Layer 1
10
130.132127
20
139.107798
11
127.132129
21
139.107798
0
LINE
8
Layer 1
10
127.132129
20
139.107798
11
127.132129
21
145.267790
0
LINE
8
Layer 1
10
127.132129
20
145.267790
11
130.132127
21
145.267790
0
LINE
8
Layer 1
10
130.132127
20
145.267790
11
130.132127
21
151.427782
0
LINE
8
Layer 1
10
130.132127
20
151.427782
11
127.132129
21
151.427782
0
LINE
8
Layer 1
10
127.132129
20
151.427782
11
127.132129
21
157.587775
0
LINE
8
Layer 1
10
127.132129
20
157.587775
11
130.132127
21
157.587775
0
LINE
8
Layer 1
10
130.132127
20
157.587775
11
130.132127
21
163.747767
0
LINE
8
Layer 1
10
130.132127
20
163.747767
11
127.132129
21
163.747767
0
LINE
8
Layer 1
10
127.132129
20
163.747767
11
127.132129
21
169.907759
0
LINE
8
Layer 1
10
127.132129
20
169.907759
11
130.132127
21
169.907759
0
LINE
8
Layer 1
10
130.132127
20
169.907759
11
130.132127
21
176.067751
0
LINE
8
Layer 1
10
130.132127
20
176.067751
11
127.132129
21
176.067751
0
LINE
8
Layer 1
10
127.132129
20
176.067751
11
127.132129
21
182.227744
0
LINE
8
Layer 1
10
127.132129
20
182.227744
11
130.132127
21
182.227744
0
LINE
8
Layer 1
10
130.132127
20
182.227744
11
130.132127
21
188.387736
0
LINE
8
Layer 1
10
130.132127
20
188.387736
11
127.132129
21
188.387736
0
LINE
8
Layer 1
10
127.132129
20
188.387736
11
127.132129
21
194.547728
0
LINE
8
Layer 1
10
127.132129
20
194.547728
11
130.132127
21
194.547728
0
LINE
8
Layer 1
10
130.132127
20
194.547728
11
130.132127
21
200.707721
0
LINE
8
Layer 1
10
130.132127
20
200.707721
11
127.132129
21
200.707721
0
LINE
8
Layer 1
10
127.132129
20
200.707721
11
127.132129
21
206.867713
0
LINE
8
Layer 1
10
127.132129
20
206.867713
11
124.132133
21
206.867713
0
LINE
8
Layer 1
10
124.132133
20
206.867713
11
124.132133
21
209.867708
0
LINE
8
Layer 1
10
124.132133
20
209.867708
11
118.132142
21
209.867708
0
LINE
8
Layer 1
10
118.132142
20
209.867708
11
118.132142
21
206.867713
0
LINE
8
Layer 1
10
118.132142
20
206.867713
11
112.132149
21
206.867713
0
LINE
8
Layer 1
10
112.132149
20
206.867713
11
112.132149
21
209.867708
0
LINE
8
Layer 1
10
112.132149
20
209.867708
11
106.132158
21
209.867708
0
LINE
8
Layer 1
10
106.132158
20
209.867708
11
106.132158
21
206.867713
0
LINE
8
Layer 1
10
106.132158
20
206.867713
11
100.132164
21
206.867713
0
LINE
8
Layer 1
10
100.132164
20
206.867713
11
100.132164
21
209.867708
0
LINE
8
Layer 1
10
100.132164
20
209.867708
11
94.132173
21
209.867708
0
LINE
8
Layer 1
10
94.132173
20
209.867708
11
94.132173
21
206.867713
0
LINE
8
Layer 1
10
94.132173
20
206.867713
11
88.132179
21
206.867713
0
LINE
8
Layer 1
10
88.132179
20
206.867713
11
88.132179
21
209.867708
0
LINE
8
Layer 1
10
88.132179
20
209.867708
11
82.132188
21
209.867708
0
LINE
8
Layer 1
10
82.132188
20
209.867708
11
82.132188
21
206.867713
0
LINE
8
Layer 1
10
82.132188
20
206.867713
11
76.132195
21
206.867713
0
LINE
8
Layer 1
10
76.132195
20
206.867713
11
76.132195
21
209.867708
0
LINE
8
Layer 1
10
76.132195
20
209.867708
11
70.132201
21
209.867708
0
LINE
8
Layer 1
10
70.132201
20
209.867708
11
70.132201
21
206.867713
0
LINE
8
Layer 1
10
70.132201
20
206.867713
11
64.132210
21
206.867713
0
LINE
8
Layer 1
10
64.132210
20
206.867713
11
64.132210
21
209.867708
0
LINE
8
Layer 1
10
64.132210
20
209.867708
11
58.132219
21
209.867708
0
LINE
8
Layer 1
10
58.132219
20
209.867708
11
58.132219
21
206.867713
0
LINE
8
Layer 1
10
58.132219
20
206.867713
11
52.132228
21
206.867713
0
LINE
8
Layer 1
10
52.132228
20
206.867713
11
52.132228
21
209.867708
0
LINE
8
Layer 1
10
52.132228
20
209.867708
11
46.132234
21
209.867708
0
LINE
8
Layer 1
10
46.132234
20
209.867708
11
46.132234
21
206.867713
0
LINE
8
Layer 1
10
46.132234
20
206.867713
11
43.132239
21
206.867713
0
LINE
8
Layer 1
10
43.132239
20
206.867713
11
43.132239
21
200.707721
0
LINE
8
Layer 1
10
43.132239
20
200.707721
11
40.132243
21
200.707721
0
LINE
8
Layer 1
10
40.132243
20
200.707721
11
40.132243
21
194.547728
0
LINE
8
Layer 1
10
40.132243
20
194.547728
11
43.132239
21
194.547728
0
LINE
8
Layer 1
10
43.132239
20
194.547728
11
43.132239
21
188.387736
0
LINE
8
Layer 1
10
43.132239
20
188.387736
11
40.132243
21
188.387736
0
LINE
8
Layer 1
10
40.132243
20
188.387736
11
40.132243
21
182.227744
0
LINE
8
Layer 1
10
40.132243
20
182.227744
11
43.132239
21
182.227744
0
LINE
8
Layer 1
10
43.132239
20
182.227744
11
43.132239
21
176.067751
0
LINE
8
Layer 1
10
43.132239
20
176.067751
11
40.132243
21
176.067751
0
LINE
8
Layer 1
10
40.132243
20
176.067751
11
40.132243
21
169.907759
0
LINE
8
Layer 1
10
40.132243
20
169.907759
11
43.132239
21
169.907759
0
LINE
8
Layer 1
10
43.132239
20
169.907759
11
43.132239
21
163.747767
0
LINE
8
Layer 1
10
43.132239
20
163.747767
11
40.132243
21
163.747767
0
LINE
8
Layer 1
10
40.132243
20
163.747767
11
40.132243
21
157.587775
0
LINE
8
Layer 1
10
40.132243
20
157.587775
11
43.132239
21
157.587775
0
LINE
8
Layer 1
10
43.132239
20
157.587775
11
43.132239
21
151.427782
0
LINE
8
Layer 1
10
43.132239
20
151.427782
11
40.132243
21
151.427782
0
LINE
8
Layer 1
10
40.132243
20
151.427782
11
40.132243
21
145.267790
0
LINE
8
Layer 1
10
40.132243
20
145.267790
11
43.132239
21
145.267790
0
LINE
8
Layer 1
10
43.132239
20
145.267790
11
43.132239
21
139.107798
0
LINE
8
Layer 1
10
43.132239
20
139.107798
11
40.132243
21
139.107798
0
LINE
8
Layer 1
10
40.132243
20
139.107798
11
40.132243
21
132.947805
0
LINE
8
Layer 1
10
40.132243
20
132.947805
11
43.132239
21
132.947805
0
LINE
8
Layer 1
10
43.132239
20
132.947805
11
43.132239
21
126.787813
0
LINE
8
Layer 1
10
43.132239
20
126.787813
11
40.132243
21
126.787813
0
LINE
8
Layer 1
10
40.132243
20
126.787813
11
40.132243
21
120.627821
0
LINE
8
Layer 1
10
40.132243
20
120.627821
11
43.132239
21
120.627821
0
LINE
8
Layer 1
10
43.132239
20
120.627821
11
43.132239
21
114.467828
0
LINE
8
Layer 1
10
43.132239
20
114.467828
11
40.132243
21
114.467828
0
LINE
8
Layer 1
10
40.132243
20
114.467828
11
40.132243
21
108.307836
0
LINE
8
Layer 1
10
40.132243
20
108.307836
11
43.132239
21
108.307836
0
LINE
8
Layer 1
10
43.132239
20
108.307836
11
43.132239
21
102.147844
0
LINE
8
Layer 1
10
43.132239
20
102.147844
11
40.132243
21
102.147844
0
LINE
8
Layer 1
10
40.132243
20
102.147844
11
40.132243
21
95.987852
0
LINE
8
Layer 1
10
40.132243
20
95.987852
11
43.132239
21
95.987852
0
LINE
8
Layer 1
10
43.132239
20
95.987852
11
43.132239
21
89.827859
0
LINE
8
Layer 1
10
43.132239
20
89.827859
11
40.132243
21
89.827859
0
LINE
8
Layer 1
10
40.132243
20
89.827859
11
40.132243
21
83.667867
0
LINE
8
Layer 1
10
40.132243
20
83.667867
11
43.132239
21
83.667867
0
LINE
8
Layer 1
10
43.132239
20
83.667867
11
43.132239
21
77.507875
0
LINE
8
Layer 1
10
43.132239
20
77.507875
11
40.132243
21
77.507875
0
LINE
8
Layer 1
10
40.132243
20
77.507875
11
40.132243
21
71.347882
0
LINE
8
Layer 1
10
40.132243
20
71.347882
11
43.132239
21
71.347882
0
LINE
8
Layer 1
10
43.132239
20
71.347882
11
43.132239
21
65.187890
0
LINE
8
Layer 1
10
43.132239
20
65.187890
11
40.132243
21
65.187890
0
LINE
8
Layer 1
10
40.132243
20
65.187890
11
40.132243
21
59.027900
0
LINE
8
Layer 1
10
40.132243
20
59.027900
11
43.132239
21
59.027900
0
LINE
8
Layer 1
10
43.132239
20
59.027900
11
43.132239
21
52.867908
0
LINE
8
Layer 1
10
0.132292
20
52.867908
11
0.132292
21
59.027900
0
LINE
8
Layer 1
10
0.132292
20
59.027900
11
3.132287
21
59.027900
0
LINE
8
Layer 1
10
3.132287
20
59.027900
11
3.132287
21
65.187890
0
LINE
8
Layer 1
10
3.132287
20
65.187890
11
0.132292
21
65.187890
0
LINE
8
Layer 1
10
0.132292
20
65.187890
11
0.132292
21
71.347882
0
LINE
8
Layer 1
10
0.132292
20
71.347882
11
3.132287
21
71.347882
0
LINE
8
Layer 1
10
3.132287
20
71.347882
11
3.132287
21
77.507875
0
LINE
8
Layer 1
10
3.132287
20
77.507875
11
0.132292
21
77.507875
0
LINE
8
Layer 1
10
0.132292
20
77.507875
11
0.132292
21
83.667867
0
LINE
8
Layer 1
10
0.132292
20
83.667867
11
3.132287
21
83.667867
0
LINE
8
Layer 1
10
3.132287
20
83.667867
11
3.132287
21
89.827859
0
LINE
8
Layer 1
10
3.132287
20
89.827859
11
0.132292
21
89.827859
0
LINE
8
Layer 1
10
0.132292
20
89.827859
11
0.132292
21
95.987852
0
LINE
8
Layer 1
10
0.132292
20
95.987852
11
3.132287
21
95.987852
0
LINE
8
Layer 1
10
3.132287
20
95.987852
11
3.132287
21
102.147844
0
LINE
8
Layer 1
10
3.132287
20
102.147844
11
0.132292
21
102.147844
0
LINE
8
Layer 1
10
0.132292
20
102.147844
11
0.132292
21
108.307836
0
LINE
8
Layer 1
10
0.132292
20
108.307836
11
3.132287
21
108.307836
0
LINE
8
Layer 1
10
3.132287
20
108.307836
11
3.132287
21
114.467828
0
LINE
8
Layer 1
10
3.132287
20
114.467828
11
0.132292
21
114.467828
0
LINE
8
Layer 1
10
0.132292
20
114.467828
11
0.132292
21
120.627821
0
LINE
8
Layer 1
10
0.132292
20
120.627821
11
3.132287
21
120.627821
0
LINE
8
Layer 1
10
3.132287
20
120.627821
11
3.132287
21
126.787813
0
LINE
8
Layer 1
10
3.132287
20
126.787813
11
0.132292
21
126.787813
0
LINE
8
Layer 1
10
0.132292
20
126.787813
11
0.132292
21
132.947805
0
LINE
8
Layer 1
10
0.132292
20
132.947805
11
3.132287
21
132.947805
0
LINE
8
Layer 1
10
3.132287
20
132.947805
11
3.132287
21
139.107798
0
LINE
8
Layer 1
10
3.132287
20
139.107798
11
0.132292
21
139.107798
0
LINE
8
Layer 1
10
0.132292
20
139.107798
11
0.132292
21
145.267790
0
LINE
8
Layer 1
10
0.132292
20
145.267790
11
3.132287
21
145.267790
0
LINE
8
Layer 1
10
3.132287
20
145.267790
11
3.132287
21
151.427782
0
LINE
8
Layer 1
10
3.132287
20
151.427782
11
0.132292
21
151.427782
0
LINE
8
Layer 1
10
0.132292
20
151.427782
11
0.132292
21
157.587775
0
LINE
8
Layer 1
10
0.132292
20
157.587775
11
3.132287
21
157.587775
0
LINE
8
Layer 1
10
3.132287
20
157.587775
11
3.132287
21
163.747767
0
LINE
8
Layer 1
10
3.132287
20
163.747767
11
0.132292
21
163.747767
0
LINE
8
Layer 1
10
0.132292
20
163.747767
11
0.132292
21
169.907759
0
LINE
8
Layer 1
10
0.132292
20
169.907759
11
3.132287
21
169.907759
0
LINE
8
Layer 1
10
3.132287
20
169.907759
11
3.132287
21
176.067751
0
LINE
8
Layer 1
10
3.132287
20
176.067751
11
0.132292
21
176.067751
0
LINE
8
Layer 1
10
0.132292
20
176.067751
11
0.132292
21
182.227744
0
LINE
8
Layer 1
10
0.132292
20
182.227744
11
3.132287
21
182.227744
0
LINE
8
Layer 1
10
3.132287
20
182.227744
11
3.132287
21
188.387736
0
LINE
8
Layer 1
10
3.132287
20
188.387736
11
0.132292
21
188.387736
0
LINE
8
Layer 1
10
0.132292
20
188.387736
11
0.132292
21
194.547728
0
LINE
8
Layer 1
10
0.132292
20
194.547728
11
3.132287
21
194.547728
0
LINE
8
Layer 1
10
3.132287
20
194.547728
11
3.132287
21
200.707721
0
LINE
8
Layer 1
10
3.132287
20
200.707721
11
0.132292
21
200.707721
0
LINE
8
Layer 1
10
0.132292
20
200.707721
11
0.132292
21
206.867713
0
LINE
8
Layer 1
10
0.132292
20
206.867713
11
7.132282
21
206.867713
0
LINE
8
Layer 1
10
7.132282
20
206.867713
11
7.132282
21
209.867708
0
LINE
8
Layer 1
10
7.132282
20
209.867708
11
14.132275
21
209.867708
0
LINE
8
Layer 1
10
14.132275
20
209.867708
11
14.132275
21
206.867713
0
LINE
8
Layer 1
10
14.132275
20
206.867713
11
21.132265
21
206.867713
0
LINE
8
Layer 1
10
21.132265
20
206.867713
11
21.132265
21
209.867708
0
LINE
8
Layer 1
10
21.132265
20
209.867708
11
28.132256
21
209.867708
0
LINE
8
Layer 1
10
28.132256
20
209.867708
11
28.132256
21
206.867713
0
LINE
8
Layer 1
10
28.132256
20
206.867713
11
35.132246
21
206.867713
0
LINE
8
Layer 1
10
35.132246
20
206.867713
11
35.132246
21
200.707721
0
LINE
8
Layer 1
10
35.132246
20
200.707721
11
32.132251
21
200.707721
0
LINE
8
Layer 1
10
32.132251
20
200.707721
11
32.132251
21
194.547728
0
LINE
8
Layer 1
10
32.132251
20
194.547728
11
35.132246
21
194.547728
0
LINE
8
Layer 1
10
35.132246
20
194.547728
11
35.132246
21
188.387736
0
LINE
8
Layer 1
10
35.132246
20
188.387736
11
32.132251
21
188.387736
0
LINE
8
Layer 1
10
32.132251
20
188.387736
11
32.132251
21
182.227744
0
LINE
8
Layer 1
10
32.132251
20
182.227744
11
35.132246
21
182.227744
0
LINE
8
Layer 1
10
35.132246
20
182.227744
11
35.132246
21
176.067751
0
LINE
8
Layer 1
10
35.132246
20
176.067751
11
32.132251
21
176.067751
0
LINE
8
Layer 1
10
32.132251
20
176.067751
11
32.132251
21
169.907759
0
LINE
8
Layer 1
10
32.132251
20
169.907759
11
35.132246
21
169.907759
0
LINE
8
Layer 1
10
35.132246
20
169.907759
11
35.132246
21
163.747767
0
LINE
8
Layer 1
10
35.132246
20
163.747767
11
32.132251
21
163.747767
0
LINE
8
Layer 1
10
32.132251
20
163.747767
11
32.132251
21
157.587775
0
LINE
8
Layer 1
10
32.132251
20
157.587775
11
35.132246
21
157.587775
0
LINE
8
Layer 1
10
35.132246
20
157.587775
11
35.132246
21
151.427782
0
LINE
8
Layer 1
10
35.132246
20
151.427782
11
32.132251
21
151.427782
0
LINE
8
Layer 1
10
32.132251
20
151.427782
11
32.132251
21
145.267790
0
LINE
8
Layer 1
10
32.132251
20
145.267790
11
35.132246
21
145.267790
0
LINE
8
Layer 1
10
35.132246
20
145.267790
11
35.132246
21
139.107798
0
LINE
8
Layer 1
10
35.132246
20
139.107798
11
32.132251
21
139.107798
0
LINE
8
Layer 1
10
32.132251
20
139.107798
11
32.132251
21
132.947805
0
LINE
8
Layer 1
10
32.132251
20
132.947805
11
35.132246
21
132.947805
0
LINE
8
Layer 1
10
35.132246
20
132.947805
11
35.132246
21
126.787813
0
LINE
8
Layer 1
10
35.132246
20
126.787813
11
32.132251
21
126.787813
0
LINE
8
Layer 1
10
32.132251
20
126.787813
11
32.132251
21
120.627821
0
LINE
8
Layer 1
10
32.132251
20
120.627821
11
35.132246
21
120.627821
0
LINE
8
Layer 1
10
35.132246
20
120.627821
11
35.132246
21
114.467828
0
LINE
8
Layer 1
10
35.132246
20
114.467828
11
32.132251
21
114.467828
0
LINE
8
Layer 1
10
32.132251
20
114.467828
11
32.132251
21
108.307836
0
LINE
8
Layer 1
10
32.132251
20
108.307836
11
35.132246
21
108.307836
0
LINE
8
Layer 1
10
35.132246
20
108.307836
11
35.132246
21
102.147844
0
LINE
8
Layer 1
10
35.132246
20
102.147844
11
32.132251
21
102.147844
0
LINE
8
Layer 1
10
32.132251
20
102.147844
11
32.132251
21
95.987852
0
LINE
8
Layer 1
10
32.132251
20
95.987852
11
35.132246
21
95.987852
0
LINE
8
Layer 1
10
35.132246
20
95.987852
11
35.132246
21
89.827859
0
LINE
8
Layer 1
10
35.132246
20
89.827859
11
32.132251
21
89.827859
0
LINE
8
Layer 1
10
32.132251
20
89.827859
11
32.132251
21
83.667867
0
LINE
8
Layer 1
10
32.132251
20
83.667867
11
35.132246
21
83.667867
0
LINE
8
Layer 1
10
35.132246
20
83.667867
11
35.132246
21
77.507875
0
LINE
8
Layer 1
10
35.132246
20
77.507875
11
32.132251
21
77.507875
0
LINE
8
Layer 1
10
32.132251
20
77.507875
11
32.132251
21
71.347882
0
LINE
8
Layer 1
10
32.132251
20
71.347882
11
35.132246
21
71.347882
0
LINE
8
Layer 1
10
35.132246
20
71.347882
11
35.132246
21
65.187890
0
LINE
8
Layer 1
10
35.132246
20
65.187890
11
32.132251
21
65.187890
0
LINE
8
Layer 1
10
32.132251
20
65.187890
11
32.132251
21
59.027900
0
LINE
8
Layer 1
10
32.132251
20
59.027900
11
35.132246
21
59.027900
0
LINE
8
Layer 1
10
35.132246
20
59.027900
11
35.132246
21
52.867908
0
LINE
8
Layer 1
10
35.132246
20
52.867908
11
28.132256
21
52.867908
0
LINE
8
Layer 1
10
28.132256
20
52.867908
11
28.132256
21
49.867910
0
LINE
8
Layer 1
10
28.132256
20
49.867910
11
21.132265
21
49.867910
0
LINE
8
Layer 1
10
21.132265
20
49.867910
11
21.132265
21
52.867908
0
LINE
8
Layer 1
10
21.132265
20
52.867908
11
14.132275
21
52.867908
0
LINE
8
Layer 1
10
14.132275
20
52.867908
11
14.132275
21
49.867910
0
LINE
8
Layer 1
10
14.132275
20
49.867910
11
7.132282
21
49.867910
0
LINE
8
Layer 1
10
7.132282
20
49.867910
11
7.132282
21
52.867908
0
LINE
8
Layer 1
10
7.132282
20
52.867908
11
0.132292
21
52.867908
0
LINE
8
Layer 1
10
175.132073
20
52.867908
11
175.132073
21
59.027900
0
LINE
8
Layer 1
10
175.132073
20
59.027900
11
172.132077
21
59.027900
0
LINE
8
Layer 1
10
172.132077
20
59.027900
11
172.132077
21
65.187890
0
LINE
8
Layer 1
10
172.132077
20
65.187890
11
175.132073
21
65.187890
0
LINE
8
Layer 1
10
175.132073
20
65.187890
11
175.132073
21
71.347882
0
LINE
8
Layer 1
10
175.132073
20
71.347882
11
172.132077
21
71.347882
0
LINE
8
Layer 1
10
172.132077
20
71.347882
11
172.132077
21
77.507875
0
LINE
8
Layer 1
10
172.132077
20
77.507875
11
175.132073
21
77.507875
0
LINE
8
Layer 1
10
175.132073
20
77.507875
11
175.132073
21
83.667867
0
LINE
8
Layer 1
10
175.132073
20
83.667867
11
172.132077
21
83.667867
0
LINE
8
Layer 1
10
172.132077
20
83.667867
11
172.132077
21
89.827859
0
LINE
8
Layer 1
10
172.132077
20
89.827859
11
175.132073
21
89.827859
0
LINE
8
Layer 1
10
175.132073
20
89.827859
11
175.132073
21
95.987852
0
LINE
8
Layer 1
10
175.132073
20
95.987852
11
172.132077
21
95.987852
0
LINE
8
Layer 1
10
172.132077
20
95.987852
11
172.132077
21
102.147844
0
LINE
8
Layer 1
10
172.132077
20
102.147844
11
175.132073
21
102.147844
0
LINE
8
Layer 1
10
175.132073
20
102.147844
11
175.132073
21
108.307836
0
LINE
8
Layer 1
10
175.132073
20
108.307836
11
172.132077
21
108.307836
0
LINE
8
Layer 1
10
172.132077
20
108.307836
11
172.132077
21
114.467828
0
LINE
8
Layer 1
10
172.132077
20
114.467828
11
175.132073
21
114.467828
0
LINE
8
Layer 1
10
175.132073
20
114.467828
11
175.132073
21
120.627821
0
LINE
8
Layer 1
10
175.132073
20
120.627821
11
172.132077
21
120.627821
0
LINE
8
Layer 1
10
172.132077
20
120.627821
11
172.132077
21
126.787813
0
LINE
8
Layer 1
10
172.132077
20
126.787813
11
175.132073
21
126.787813
0
LINE
8
Layer 1
10
175.132073
20
126.787813
11
175.132073
21
132.947805
0
LINE
8
Layer 1
10
175.132073
20
132.947805
11
172.132077
21
132.947805
0
LINE
8
Layer 1
10
172.132077
20
132.947805
11
172.132077
21
139.107798
0
LINE
8
Layer 1
10
172.132077
20
139.107798
11
175.132073
21
139.107798
0
LINE
8
Layer 1
10
175.132073
20
139.107798
11
175.132073
21
145.267790
0
LINE
8
Layer 1
10
175.132073
20
145.267790
11
172.132077
21
145.267790
0
LINE
8
Layer 1
10
172.132077
20
145.267790
11
172.132077
21
151.427782
0
LINE
8
Layer 1
10
172.132077
20
151.427782
11
175.132073
21
151.427782
0
LINE
8
Layer 1
10
175.132073
20
151.427782
11
175.132073
21
157.587775
0
LINE
8
Layer 1
10
175.132073
20
157.587775
11
172.132077
21
157.587775
0
LINE
8
Layer 1
10
172.132077
20
157.587775
11
172.132077
21
163.747767
0
LINE
8
Layer 1
10
172.132077
20
163.747767
11
175.132073
21
163.747767
0
LINE
8
Layer 1
10
175.132073
20
163.747767
11
175.132073
21
169.907759
0
LINE
8
Layer 1
10
175.132073
20
169.907759
11
172.132077
21
169.907759
0
LINE
8
Layer 1
10
172.132077
20
169.907759
11
172.132077
21
176.067751
0
LINE
8
Layer 1
10
172.132077
20
176.067751
11
175.132073
21
176.067751
0
LINE
8
Layer 1
10
175.132073
20
176.067751
11
175.132073
21
182.227744
0
LINE
8
Layer 1
10
175.132073
20
182.227744
11
172.132077
21
182.227744
0
LINE
8
Layer 1
10
172.132077
20
182.227744
11
172.132077
21
188.387736
0
LINE
8
Layer 1
10
172.132077
20
188.387736
11
175.132073
21
188.387736
0
LINE
8
Layer 1
10
175.132073
20
188.387736
11
175.132073
21
194.547728
0
LINE
8
Layer 1
10
175.132073
20
194.547728
11
172.132077
21
194.547728
0
LINE
8
Layer 1
10
172.132077
20
194.547728
11
172.132077
21
200.707721
0
LINE
8
Layer 1
10
172.132077
20
200.707721
11
175.132073
21
200.707721
0
LINE
8
Layer 1
10
175.132073
20
200.707721
11
175.132073
21
206.867713
0
LINE
8
Layer 1
10
175.132073
20
206.867713
11
168.132083
21
206.867713
0
LINE
8
Layer 1
10
168.132083
20
206.867713
11
168.132083
21
209.867708
0
LINE
8
Layer 1
10
168.132083
20
209.867708
11
161.132092
21
209.867708
0
LINE
8
Layer 1
10
161.132092
20
209.867708
11
161.132092
21
206.867713
0
LINE
8
Layer 1
10
161.132092
20
206.867713
11
154.132102
21
206.867713
0
LINE
8
Layer 1
10
154.132102
20
206.867713
11
154.132102
21
209.867708
0
LINE
8
Layer 1
10
154.132102
20
209.867708
11
147.132109
21
209.867708
0
LINE
8
Layer 1
10
147.132109
20
209.867708
11
147.132109
21
206.867713
0
LINE
8
Layer 1
10
147.132109
20
206.867713
11
140.132118
21
206.867713
0
LINE
8
Layer 1
10
140.132118
20
206.867713
11
140.132118
21
200.707721
0
LINE
8
Layer 1
10
140.132118
20
200.707721
11
143.132114
21
200.707721
0
LINE
8
Layer 1
10
143.132114
20
200.707721
11
143.132114
21
194.547728
0
LINE
8
Layer 1
10
143.132114
20
194.547728
11
140.132118
21
194.547728
0
LINE
8
Layer 1
10
140.132118
20
194.547728
11
140.132118
21
188.387736
0
LINE
8
Layer 1
10
140.132118
20
188.387736
11
143.132114
21
188.387736
0
LINE
8
Layer 1
10
143.132114
20
188.387736
11
143.132114
21
182.227744
0
LINE
8
Layer 1
10
143.132114
20
182.227744
11
140.132118
21
182.227744
0
LINE
8
Layer 1
10
140.132118
20
182.227744
11
140.132118
21
176.067751
0
LINE
8
Layer 1
10
140.132118
20
176.067751
11
143.132114
21
176.067751
0
LINE
8
Layer 1
10
143.132114
20
176.067751
11
143.132114
21
169.907759
0
LINE
8
Layer 1
10
143.132114
20
169.907759
11
140.132118
21
169.907759
0
LINE
8
Layer 1
10
140.132118
20
169.907759
11
140.132118
21
163.747767
0
LINE
8
Layer 1
10
140.132118
20
163.747767
11
143.132114
21
163.747767
0
LINE
8
Layer 1
10
143.132114
20
163.747767
11
143.132114
21
157.587775
0
LINE
8
Layer 1
10
143.132114
20
157.587775
11
140.132118
21
157.587775
0
LINE
8
Layer 1
10
140.132118
20
157.587775
11
140.132118
21
151.427782
0
LINE
8
Layer 1
10
140.132118
20
151.427782
11
143.132114
21
151.427782
0
LINE
8
Layer 1
10
143.132114
20
151.427782
11
143.132114
21
145.267790
0
LINE
8
Layer 1
10
143.132114
20
145.267790
11
140.132118
21
145.267790
0
LINE
8
Layer 1
10
140.132118
20
145.267790
11
140.132118
21
139.107798
0
LINE
8
Layer 1
10
140.132118
20
139.107798
11
143.132114
21
139.107798
0
LINE
8
Layer 1
10
143.132114
20
139.107798
11
143.132114
21
132.947805
0
LINE
8
Layer 1
10
143.132114
20
132.947805
11
140.132118
21
132.947805
0
LINE
8
Layer 1
10
140.132118
20
132.947805
11
140.132118
21
126.787813
0
LINE
8
Layer 1
10
140.132118
20
126.787813
11
143.132114
21
126.787813
0
LINE
8
Layer 1
10
143.132114
20
126.787813
11
143.132114
21
120.627821
0
LINE
8
Layer 1
10
143.132114
20
120.627821
11
140.132118
21
120.627821
0
LINE
8
Layer 1
10
140.132118
20
120.627821
11
140.132118
21
114.467828
0
LINE
8
Layer 1
10
140.132118
20
114.467828
11
143.132114
21
114.467828
0
LINE
8
Layer 1
10
143.132114
20
114.467828
11
143.132114
21
108.307836
0
LINE
8
Layer 1
10
143.132114
20
108.307836
11
140.132118
21
108.307836
0
LINE
8
Layer 1
10
140.132118
20
108.307836
11
140.132118
21
102.147844
0
LINE
8
Layer 1
10
140.132118
20
102.147844
11
143.132114
21
102.147844
0
LINE
8
Layer 1
10
143.132114
20
102.147844
11
143.132114
21
95.987852
0
LINE
8
Layer 1
10
143.132114
20
95.987852
11
140.132118
21
95.987852
0
LINE
8
Layer 1
10
140.132118
20
95.987852
11
140.132118
21
89.827859
0
LINE
8
Layer 1
10
140.132118
20
89.827859
11
143.132114
21
89.827859
0
LINE
8
Layer 1
10
143.132114
20
89.827859
11
143.132114
21
83.667867
0
LINE
8
Layer 1
10
143.132114
20
83.667867
11
140.132118
21
83.667867
0
LINE
8
Layer 1
10
140.132118
20
83.667867
11
140.132118
21
77.507875
0
LINE
8
Layer 1
10
140.132118
20
77.507875
11
143.132114
21
77.507875
0
LINE
8
Layer 1
10
143.132114
20
77.507875
11
143.132114
21
71.347882
0
LINE
8
Layer 1
10
143.132114
20
71.347882
11
140.132118
21
71.347882
0
LINE
8
Layer 1
10
140.132118
20
71.347882
11
140.132118
21
65.187890
0
LINE
8
Layer 1
10
140.132118
20
65.187890
11
143.132114
21
65.187890
0
LINE
8
Layer 1
10
143.132114
20
65.187890
11
143.132114
21
59.027900
0
LINE
8
Layer 1
10
143.132114
20
59.027900
11
140.132118
21
59.027900
0
LINE
8
Layer 1
10
140.132118
20
59.027900
11
140.132118
21
52.867908
0
LINE
8
Layer 1
10
140.132118
20
52.867908
11
147.132109
21
52.867908
0
LINE
8
Layer 1
10
147.132109
20
52.867908
11
147.132109
21
49.867910
0
LINE
8
Layer 1
10
147.132109
20
49.867910
11
154.132102
21
49.867910
0
LINE
8
Layer 1
10
154.132102
20
49.867910
11
154.132102
21
52.867908
0
LINE
8
Layer 1
10
154.132102
20
52.867908
11
161.132092
21
52.867908
0
LINE
8
Layer 1
10
161.132092
20
52.867908
11
161.132092
21
49.867910
0
LINE
8
Layer 1
10
161.132092
20
49.867910
11
168.132083
21
49.867910
0
LINE
8
Layer 1
10
168.132083
20
49.867910
11
168.132083
21
52.867908
0
LINE
8
Layer 1
10
168.132083
20
52.867908
11
175.132073
21
52.867908
0
LINE
8
Layer 1
10
193.132051
20
52.788160
11
199.592044
21
52.788160
0
LINE
8
Layer 1
10
199.592044
20
52.788160
11
199.592044
21
49.788165
0
LINE
8
Layer 1
10
199.592044
20
49.788165
11
206.052036
21
49.788165
0
LINE
8
Layer 1
10
206.052036
20
49.788165
11
206.052036
21
52.788160
0
LINE
8
Layer 1
10
206.052036
20
52.788160
11
212.512028
21
52.788160
0
LINE
8
Layer 1
10
212.512028
20
52.788160
11
212.512028
21
49.788165
0
LINE
8
Layer 1
10
212.512028
20
49.788165
11
218.982019
21
49.788165
0
LINE
8
Layer 1
10
218.982019
20
49.788165
11
218.982019
21
52.788160
0
LINE
8
Layer 1
10
218.982019
20
52.788160
11
225.442012
21
52.788160
0
LINE
8
Layer 1
10
225.442012
20
52.788160
11
225.442012
21
49.788165
0
LINE
8
Layer 1
10
225.442012
20
49.788165
11
231.902007
21
49.788165
0
LINE
8
Layer 1
10
231.902007
20
49.788165
11
231.902007
21
52.788160
0
LINE
8
Layer 1
10
231.902007
20
52.788160
11
238.361986
21
52.788160
0
LINE
8
Layer 1
10
238.361986
20
52.788160
11
238.361986
21
49.788165
0
LINE
8
Layer 1
10
238.361986
20
49.788165
11
244.821992
21
49.788165
0
LINE
8
Layer 1
10
244.821992
20
49.788165
11
244.821992
21
52.788160
0
LINE
8
Layer 1
10
244.821992
20
52.788160
11
251.281971
21
52.788160
0
LINE
8
Layer 1
10
251.281971
20
52.788160
11
251.281971
21
49.788165
0
LINE
8
Layer 1
10
251.281971
20
49.788165
11
257.741976
21
49.788165
0
LINE
8
Layer 1
10
257.741976
20
49.788165
11
257.741976
21
52.788160
0
LINE
8
Layer 1
10
257.741976
20
52.788160
11
264.211957
21
52.788160
0
LINE
8
Layer 1
10
264.211957
20
52.788160
11
264.211957
21
49.788165
0
LINE
8
Layer 1
10
264.211957
20
49.788165
11
270.671954
21
49.788165
0
LINE
8
Layer 1
10
270.671954
20
49.788165
11
270.671954
21
52.788160
0
LINE
8
Layer 1
10
270.671954
20
52.788160
11
277.131934
21
52.788160
0
LINE
8
Layer 1
10
277.131934
20
52.788160
11
277.131934
21
58.948152
0
LINE
8
Layer 1
10
277.131934
20
58.948152
11
280.131934
21
58.948152
0
LINE
8
Layer 1
10
280.131934
20
58.948152
11
280.131934
21
65.108145
0
LINE
8
Layer 1
10
280.131934
20
65.108145
11
277.131934
21
65.108145
0
LINE
8
Layer 1
10
277.131934
20
65.108145
11
277.131934
21
71.268137
0
LINE
8
Layer 1
10
277.131934
20
71.268137
11
280.131934
21
71.268137
0
LINE
8
Layer 1
10
280.131934
20
71.268137
11
280.131934
21
77.428129
0
LINE
8
Layer 1
10
280.131934
20
77.428129
11
277.131934
21
77.428129
0
LINE
8
Layer 1
10
277.131934
20
77.428129
11
277.131934
21
83.588122
0
LINE
8
Layer 1
10
277.131934
20
83.588122
11
280.131934
21
83.588122
0
LINE
8
Layer 1
10
280.131934
20
83.588122
11
280.131934
21
89.748114
0
LINE
8
Layer 1
10
280.131934
20
89.748114
11
277.131934
21
89.748114
0
LINE
8
Layer 1
10
277.131934
20
89.748114
11
277.131934
21
95.908106
0
LINE
8
Layer 1
10
277.131934
20
95.908106
11
280.131934
21
95.908106
0
LINE
8
Layer 1
10
280.131934
20
95.908106
11
280.131934
21
102.068099
0
LINE
8
Layer 1
10
280.131934
20
102.068099
11
277.131934
21
102.068099
0
LINE
8
Layer 1
10
277.131934
20
102.068099
11
277.131934
21
108.228091
0
LINE
8
Layer 1
10
277.131934
20
108.228091
11
280.131934
21
108.228091
0
LINE
8
Layer 1
10
280.131934
20
108.228091
11
280.131934
21
114.388083
0
LINE
8
Layer 1
10
280.131934
20
114.388083
11
277.131934
21
114.388083
0
LINE
8
Layer 1
10
277.131934
20
114.388083
11
277.131934
21
120.548075
0
LINE
8
Layer 1
10
277.131934
20
120.548075
11
280.131934
21
120.548075
0
LINE
8
Layer 1
10
280.131934
20
120.548075
11
280.131934
21
126.708068
0
LINE
8
Layer 1
10
280.131934
20
126.708068
11
277.131934
21
126.708068
0
LINE
8
Layer 1
10
277.131934
20
126.708068
11
277.131934
21
132.868060
0
LINE
8
Layer 1
10
277.131934
20
132.868060
11
280.131934
21
132.868060
0
LINE
8
Layer 1
10
280.131934
20
132.868060
11
280.131934
21
139.028052
0
LINE
8
Layer 1
10
280.131934
20
139.028052
11
277.131934
21
139.028052
0
LINE
8
Layer 1
10
277.131934
20
139.028052
11
277.131934
21
145.188045
0
LINE
8
Layer 1
10
277.131934
20
145.188045
11
280.131934
21
145.188045
0
LINE
8
Layer 1
10
280.131934
20
145.188045
11
280.131934
21
151.348037
0
LINE
8
Layer 1
10
280.131934
20
151.348037
11
277.131934
21
151.348037
0
LINE
8
Layer 1
10
277.131934
20
151.348037
11
277.131934
21
157.508029
0
LINE
8
Layer 1
10
277.131934
20
157.508029
11
280.131934
21
157.508029
0
LINE
8
Layer 1
10
280.131934
20
157.508029
11
280.131934
21
163.668022
0
LINE
8
Layer 1
10
280.131934
20
163.668022
11
277.131934
21
163.668022
0
LINE
8
Layer 1
10
277.131934
20
163.668022
11
277.131934
21
169.828014
0
LINE
8
Layer 1
10
277.131934
20
169.828014
11
280.131934
21
169.828014
0
LINE
8
Layer 1
10
280.131934
20
169.828014
11
280.131934
21
175.988006
0
LINE
8
Layer 1
10
280.131934
20
175.988006
11
277.131934
21
175.988006
0
LINE
8
Layer 1
10
277.131934
20
175.988006
11
277.131934
21
182.147998
0
LINE
8
Layer 1
10
277.131934
20
182.147998
11
280.131934
21
182.147998
0
LINE
8
Layer 1
10
280.131934
20
182.147998
11
280.131934
21
188.307991
0
LINE
8
Layer 1
10
280.131934
20
188.307991
11
277.131934
21
188.307991
0
LINE
8
Layer 1
10
277.131934
20
188.307991
11
277.131934
21
194.467983
0
LINE
8
Layer 1
10
277.131934
20
194.467983
11
280.131934
21
194.467983
0
LINE
8
Layer 1
10
280.131934
20
194.467983
11
280.131934
21
200.627975
0
LINE
8
Layer 1
10
280.131934
20
200.627975
11
277.131934
21
200.627975
0
LINE
8
Layer 1
10
277.131934
20
200.627975
11
277.131934
21
206.787968
0
LINE
8
Layer 1
10
277.131934
20
206.787968
11
270.671954
21
206.787968
0
LINE
8
Layer 1
10
270.671954
20
206.787968
11
270.671954
21
209.787963
0
LINE
8
Layer 1
10
270.671954
20
209.787963
11
264.211957
21
209.787963
0
LINE
8
Layer 1
10
264.211957
20
209.787963
11
264.211957
21
206.787968
0
LINE
8
Layer 1
10
264.211957
20
206.787968
11
257.741976
21
206.787968
0
LINE
8
Layer 1
10
257.741976
20
206.787968
11
257.741976
21
209.787963
0
LINE
8
Layer 1
10
257.741976
20
209.787963
11
251.281971
21
209.787963
0
LINE
8
Layer 1
10
251.281971
20
209.787963
11
251.281971
21
206.787968
0
LINE
8
Layer 1
10
251.281971
20
206.787968
11
244.821992
21
206.787968
0
LINE
8
Layer 1
10
244.821992
20
206.787968
11
244.821992
21
209.787963
0
LINE
8
Layer 1
10
244.821992
20
209.787963
11
238.361986
21
209.787963
0
LINE
8
Layer 1
10
238.361986
20
209.787963
11
238.361986
21
206.787968
0
LINE
8
Layer 1
10
238.361986
20
206.787968
11
231.902007
21
206.787968
0
LINE
8
Layer 1
10
231.902007
20
206.787968
11
231.902007
21
209.787963
0
LINE
8
Layer 1
10
231.902007
20
209.787963
11
225.442012
21
209.787963
0
LINE
8
Layer 1
10
225.442012
20
209.787963
11
225.442012
21
206.787968
0
LINE
8
Layer 1
10
225.442012
20
206.787968
11
218.982019
21
206.787968
0
LINE
8
Layer 1
10
218.982019
20
206.787968
11
218.982019
21
209.787963
0
LINE
8
Layer 1
10
218.982019
20
209.787963
11
212.512028
21
209.787963
0
LINE
8
Layer 1
10
212.512028
20
209.787963
11
212.512028
21
206.787968
0
LINE
8
Layer 1
10
212.512028
20
206.787968
11
206.052036
21
206.787968
0
LINE
8
Layer 1
10
206.052036
20
206.787968
11
206.052036
21
209.787963
0
LINE
8
Layer 1
10
206.052036
20
209.787963
11
199.592044
21
209.787963
0
LINE
8
Layer 1
10
199.592044
20
209.787963
11
199.592044
21
206.787968
0
LINE
8
Layer 1
10
199.592044
20
206.787968
11
193.132051
21
206.787968
0
LINE
8
Layer 1
10
193.132051
20
206.787968
11
193.132051
21
200.627975
0
LINE
8
Layer 1
10
193.132051
20
200.627975
11
190.132056
21
200.627975
0
LINE
8
Layer 1
10
190.132056
20
200.627975
11
190.132056
21
194.467983
0
LINE
8
Layer 1
10
190.132056
20
194.467983
11
193.132051
21
194.467983
0
LINE
8
Layer 1
10
193.132051
20
194.467983
11
193.132051
21
188.307991
0
LINE
8
Layer 1
10
193.132051
20
188.307991
11
190.132056
21
188.307991
0
LINE
8
Layer 1
10
190.132056
20
188.307991
11
190.132056
21
182.147998
0
LINE
8
Layer 1
10
190.132056
20
182.147998
11
193.132051
21
182.147998
0
LINE
8
Layer 1
10
193.132051
20
182.147998
11
193.132051
21
175.988006
0
LINE
8
Layer 1
10
193.132051
20
175.988006
11
190.132056
21
175.988006
0
LINE
8
Layer 1
10
190.132056
20
175.988006
11
190.132056
21
169.828014
0
LINE
8
Layer 1
10
190.132056
20
169.828014
11
193.132051
21
169.828014
0
LINE
8
Layer 1
10
193.132051
20
169.828014
11
193.132051
21
163.668022
0
LINE
8
Layer 1
10
193.132051
20
163.668022
11
190.132056
21
163.668022
0
LINE
8
Layer 1
10
190.132056
20
163.668022
11
190.132056
21
157.508029
0
LINE
8
Layer 1
10
190.132056
20
157.508029
11
193.132051
21
157.508029
0
LINE
8
Layer 1
10
193.132051
20
157.508029
11
193.132051
21
151.348037
0
LINE
8
Layer 1
10
193.132051
20
151.348037
11
190.132056
21
151.348037
0
LINE
8
Layer 1
10
190.132056
20
151.348037
11
190.132056
21
145.188045
0
LINE
8
Layer 1
10
190.132056
20
145.188045
11
193.132051
21
145.188045
0
LINE
8
Layer 1
10
193.132051
20
145.188045
11
193.132051
21
139.028052
0
LINE
8
Layer 1
10
193.132051
20
139.028052
11
190.132056
21
139.028052
0
LINE
8
Layer 1
10
190.132056
20
139.028052
11
190.132056
21
132.868060
0
LINE
8
Layer 1
10
190.132056
20
132.868060
11
193.132051
21
132.868060
0
LINE
8
Layer 1
10
193.132051
20
132.868060
11
193.132051
21
126.708068
0
LINE
8
Layer 1
10
193.132051
20
126.708068
11
190.132056
21
126.708068
0
LINE
8
Layer 1
10
190.132056
20
126.708068
11
190.132056
21
120.548075
0
LINE
8
Layer 1
10
190.132056
20
120.548075
11
193.132051
21
120.548075
0
LINE
8
Layer 1
10
193.132051
20
120.548075
11
193.132051
21
114.388083
0
LINE
8
Layer 1
10
193.132051
20
114.388083
11
190.132056
21
114.388083
0
LINE
8
Layer 1
10
190.132056
20
114.388083
11
190.132056
21
108.228091
0
LINE
8
Layer 1
10
190.132056
20
108.228091
11
193.132051
21
108.228091
0
LINE
8
Layer 1
10
193.132051
20
108.228091
11
193.132051
21
102.068099
0
LINE
8
Layer 1
10
193.132051
20
102.068099
11
190.132056
21
102.068099
0
LINE
8
Layer 1
10
190.132056
20
102.068099
11
190.132056
21
95.908106
0
LINE
8
Layer 1
10
190.132056
20
95.908106
11
193.132051
21
95.908106
0
LINE
8
Layer 1
10
193.132051
20
95.908106
11
193.132051
21
89.748114
0
LINE
8
Layer 1
10
193.132051
20
89.748114
11
190.132056
21
89.748114
0
LINE
8
Layer 1
10
190.132056
20
89.748114
11
190.132056
21
83.588122
0
LINE
8
Layer 1
10
190.132056
20
83.588122
11
193.132051
21
83.588122
0
LINE
8
Layer 1
10
193.132051
20
83.588122
11
193.132051
21
77.428129
0
LINE
8
Layer 1
10
193.132051
20
77.428129
11
190.132056
21
77.428129
0
LINE
8
Layer 1
10
190.132056
20
77.428129
11
190.132056
21
71.268137
0
LINE
8
Layer 1
10
190.132056
20
71.268137
11
193.132051
21
71.268137
0
LINE
8
Layer 1
10
193.132051
20
71.268137
11
193.132051
21
65.108145
0
LINE
8
Layer 1
10
193.132051
20
65.108145
11
190.132056
21
65.108145
0
LINE
8
Layer 1
10
190.132056
20
65.108145
11
190.132056
21
58.948152
0
LINE
8
Layer 1
10
190.132056
20
58.948152
11
193.132051
21
58.948152
0
LINE
8
Layer 1
10
193.132051
20
58.948152
11
193.132051
21
52.788160
0
LINE
8
Layer 1
10
3.132281
20
4.867959
11
9.592262
21
4.867959
0
LINE
8
Layer 1
10
9.592262
20
4.867959
11
9.592262
21
7.867960
0
LINE
8
Layer 1
10
9.592262
20
7.867960
11
16.052243
21
7.867960
0
LINE
8
Layer 1
10
16.052243
20
7.867960
11
16.052243
21
4.867959
0
LINE
8
Layer 1
10
16.052243
20
4.867959
11
22.512222
21
4.867959
0
LINE
8
Layer 1
10
22.512222
20
4.867959
11
22.512222
21
7.867960
0
LINE
8
Layer 1
10
22.512222
20
7.867960
11
28.982205
21
7.867960
0
LINE
8
Layer 1
10
28.982205
20
7.867960
11
28.982205
21
4.867959
0
LINE
8
Layer 1
10
28.982205
20
4.867959
11
35.442181
21
4.867959
0
LINE
8
Layer 1
10
35.442181
20
4.867959
11
35.442181
21
7.867960
0
LINE
8
Layer 1
10
35.442181
20
7.867960
11
41.902163
21
7.867960
0
LINE
8
Layer 1
10
41.902163
20
7.867960
11
41.902163
21
4.867959
0
LINE
8
Layer 1
10
41.902163
20
4.867959
11
48.362142
21
4.867959
0
LINE
8
Layer 1
10
48.362142
20
4.867959
11
48.362142
21
7.867960
0
LINE
8
Layer 1
10
48.362142
20
7.867960
11
54.822124
21
7.867960
0
LINE
8
Layer 1
10
54.822124
20
7.867960
11
54.822124
21
4.867959
0
LINE
8
Layer 1
10
54.822124
20
4.867959
11
61.282106
21
4.867959
0
LINE
8
Layer 1
10
61.282106
20
4.867959
11
61.282106
21
7.867960
0
LINE
8
Layer 1
10
61.282106
20
7.867960
11
67.742085
21
7.867960
0
LINE
8
Layer 1
10
67.742085
20
7.867960
11
67.742085
21
4.867959
0
LINE
8
Layer 1
10
67.742085
20
4.867959
11
74.212065
21
4.867959
0
LINE
8
Layer 1
10
74.212065
20
4.867959
11
74.212065
21
7.867960
0
LINE
8
Layer 1
10
74.212065
20
7.867960
11
80.672047
21
7.867960
0
LINE
8
Layer 1
10
80.672047
20
7.867960
11
80.672047
21
4.867959
0
LINE
8
Layer 1
10
80.672047
20
4.867959
11
87.132024
21
4.867959
0
LINE
8
Layer 1
10
87.132024
20
4.867959
11
90.132017
21
4.867959
0
LINE
8
Layer 1
10
90.132017
20
4.867959
11
90.132017
21
11.867952
0
LINE
8
Layer 1
10
90.132017
20
11.867952
11
87.132024
21
11.867952
0
LINE
8
Layer 1
10
87.132024
20
11.867952
11
87.132024
21
18.867945
0
LINE
8
Layer 1
10
87.132024
20
18.867945
11
90.132017
21
18.867945
0
LINE
8
Layer 1
10
90.132017
20
18.867945
11
90.132017
21
25.867938
0
LINE
8
Layer 1
10
90.132017
20
25.867938
11
87.132024
21
25.867938
0
LINE
8
Layer 1
10
87.132024
20
25.867938
11
87.132024
21
32.867931
0
LINE
8
Layer 1
10
87.132024
20
32.867931
11
90.132017
21
32.867931
0
LINE
8
Layer 1
10
90.132017
20
32.867931
11
90.132017
21
39.867919
0
LINE
8
Layer 1
10
90.132017
20
39.867919
11
84.132034
21
39.867919
0
LINE
8
Layer 1
10
84.132034
20
39.867919
11
84.132034
21
36.867923
0
LINE
8
Layer 1
10
84.132034
20
36.867923
11
78.132053
21
36.867923
0
LINE
8
Layer 1
10
78.132053
20
36.867923
11
78.132053
21
39.867919
0
LINE
8
Layer 1
10
78.132053
20
39.867919
11
72.132070
21
39.867919
0
LINE
8
Layer 1
10
72.132070
20
39.867919
11
72.132070
21
36.867923
0
LINE
8
Layer 1
10
72.132070
20
36.867923
11
66.132092
21
36.867923
0
LINE
8
Layer 1
10
66.132092
20
36.867923
11
66.132092
21
39.867919
0
LINE
8
Layer 1
10
66.132092
20
39.867919
11
60.132109
21
39.867919
0
LINE
8
Layer 1
10
60.132109
20
39.867919
11
60.132109
21
36.867923
0
LINE
8
Layer 1
10
60.132109
20
36.867923
11
54.132129
21
36.867923
0
LINE
8
Layer 1
10
54.132129
20
36.867923
11
54.132129
21
39.867919
0
LINE
8
Layer 1
10
54.132129
20
39.867919
11
48.132146
21
39.867919
0
LINE
8
Layer 1
10
48.132146
20
39.867919
11
48.132146
21
36.867923
0
LINE
8
Layer 1
10
48.132146
20
36.867923
11
42.132165
21
36.867923
0
LINE
8
Layer 1
10
42.132165
20
36.867923
11
42.132165
21
39.867919
0
LINE
8
Layer 1
10
42.132165
20
39.867919
11
36.132182
21
39.867919
0
LINE
8
Layer 1
10
36.132182
20
39.867919
11
36.132182
21
36.867923
0
LINE
8
Layer 1
10
36.132182
20
36.867923
11
30.132199
21
36.867923
0
LINE
8
Layer 1
10
30.132199
20
36.867923
11
30.132199
21
39.867919
0
LINE
8
Layer 1
10
30.132199
20
39.867919
11
24.132218
21
39.867919
0
LINE
8
Layer 1
10
24.132218
20
39.867919
11
24.132218
21
36.867923
0
LINE
8
Layer 1
10
24.132218
20
36.867923
11
18.132235
21
36.867923
0
LINE
8
Layer 1
10
18.132235
20
36.867923
11
18.132235
21
39.867919
0
LINE
8
Layer 1
10
18.132235
20
39.867919
11
12.132255
21
39.867919
0
LINE
8
Layer 1
10
12.132255
20
39.867919
11
12.132255
21
36.867923
0
LINE
8
Layer 1
10
12.132255
20
36.867923
11
6.132272
21
36.867923
0
LINE
8
Layer 1
10
6.132272
20
36.867923
11
6.132272
21
39.867919
0
LINE
8
Layer 1
10
6.132272
20
39.867919
11
0.132291
21
39.867919
0
LINE
8
Layer 1
10
0.132291
20
39.867919
11
0.132291
21
32.867931
0
LINE
8
Layer 1
10
0.132291
20
32.867931
11
3.132281
21
32.867931
0
LINE
8
Layer 1
10
3.132281
20
32.867931
11
3.132281
21
25.867938
0
LINE
8
Layer 1
10
3.132281
20
25.867938
11
0.132291
21
25.867938
0
LINE
8
Layer 1
10
0.132291
20
25.867938
11
0.132291
21
18.867945
0
LINE
8
Layer 1
10
0.132291
20
18.867945
11
3.132281
21
18.867945
0
LINE
8
Layer 1
10
3.132281
20
18.867945
11
3.132281
21
11.867952
0
LINE
8
Layer 1
10
3.132281
20
11.867952
11
0.132291
21
11.867952
0
LINE
8
Layer 1
10
0.132291
20
11.867952
11
0.132291
21
4.867959
0
LINE
8
Layer 1
10
0.132291
20
4.867959
11
3.132281
21
4.867959
0
LINE
8
Layer 1
10
103.132157
20
39.867919
11
109.592139
21
39.867919
0
LINE
8
Layer 1
10
109.592139
20
39.867919
11
109.592139
21
36.867931
0
LINE
8
Layer 1
10
109.592139
20
36.867931
11
116.052120
21
36.867931
0
LINE
8
Layer 1
10
116.052120
20
36.867931
11
116.052120
21
39.867919
0
LINE
8
Layer 1
10
116.052120
20
39.867919
11
122.512097
21
39.867919
0
LINE
8
Layer 1
10
122.512097
20
39.867919
11
122.512097
21
36.867931
0
LINE
8
Layer 1
10
122.512097
20
36.867931
11
128.982080
21
36.867931
0
LINE
8
Layer 1
10
128.982080
20
36.867931
11
128.982080
21
39.867919
0
LINE
8
Layer 1
10
128.982080
20
39.867919
11
135.442070
21
39.867919
0
LINE
8
Layer 1
10
135.442070
20
39.867919
11
135.442070
21
36.867931
0
LINE
8
Layer 1
10
135.442070
20
36.867931
11
141.902036
21
36.867931
0
LINE
8
Layer 1
10
141.902036
20
36.867931
11
141.902036
21
39.867919
0
LINE
8
Layer 1
10
141.902036
20
39.867919
11
148.362031
21
39.867919
0
LINE
8
Layer 1
10
148.362031
20
39.867919
11
148.362031
21
36.867931
0
LINE
8
Layer 1
10
148.362031
20
36.867931
11
154.821999
21
36.867931
0
LINE
8
Layer 1
10
154.821999
20
36.867931
11
154.821999
21
39.867919
0
LINE
8
Layer 1
10
154.821999
20
39.867919
11
161.281992
21
39.867919
0
LINE
8
Layer 1
10
161.281992
20
39.867919
11
161.281992
21
36.867931
0
LINE
8
Layer 1
10
161.281992
20
36.867931
11
167.741960
21
36.867931
0
LINE
8
Layer 1
10
167.741960
20
36.867931
11
167.741960
21
39.867919
0
LINE
8
Layer 1
10
167.741960
20
39.867919
11
174.211956
21
39.867919
0
LINE
8
Layer 1
10
174.211956
20
39.867919
11
174.211956
21
36.867931
0
LINE
8
Layer 1
10
174.211956
20
36.867931
11
180.671922
21
36.867931
0
LINE
8
Layer 1
10
180.671922
20
36.867931
11
180.671922
21
39.867919
0
LINE
8
Layer 1
10
180.671922
20
39.867919
11
187.131891
21
39.867919
0
LINE
8
Layer 1
10
187.131891
20
39.867919
11
190.131886
21
39.867919
0
LINE
8
Layer 1
10
190.131886
20
39.867919
11
190.131886
21
32.867939
0
LINE
8
Layer 1
10
190.131886
20
32.867939
11
187.131891
21
32.867939
0
LINE
8
Layer 1
10
187.131891
20
32.867939
11
187.131891
21
25.867946
0
LINE
8
Layer 1
10
187.131891
20
25.867946
11
190.131886
21
25.867946
0
LINE
8
Layer 1
10
190.131886
20
25.867946
11
190.131886
21
18.867953
0
LINE
8
Layer 1
10
190.131886
20
18.867953
11
187.131891
21
18.867953
0
LINE
8
Layer 1
10
187.131891
20
18.867953
11
187.131891
21
11.867960
0
LINE
8
Layer 1
10
187.131891
20
11.867960
11
190.131886
21
11.867960
0
LINE
8
Layer 1
10
190.131886
20
11.867960
11
190.131886
21
4.867967
0
LINE
8
Layer 1
10
190.131886
20
4.867967
11
184.131922
21
4.867967
0
LINE
8
Layer 1
10
184.131922
20
4.867967
11
184.131922
21
7.867967
0
LINE
8
Layer 1
10
184.131922
20
7.867967
11
178.131931
21
7.867967
0
LINE
8
Layer 1
10
178.131931
20
7.867967
11
178.131931
21
4.867967
0
LINE
8
Layer 1
10
178.131931
20
4.867967
11
172.131940
21
4.867967
0
LINE
8
Layer 1
10
172.131940
20
4.867967
11
172.131940
21
7.867967
0
LINE
8
Layer 1
10
172.131940
20
7.867967
11
166.131975
21
7.867967
0
LINE
8
Layer 1
10
166.131975
20
7.867967
11
166.131975
21
4.867967
0
LINE
8
Layer 1
10
166.131975
20
4.867967
11
160.131984
21
4.867967
0
LINE
8
Layer 1
10
160.131984
20
4.867967
11
160.131984
21
7.867967
0
LINE
8
Layer 1
10
160.131984
20
7.867967
11
154.131993
21
7.867967
0
LINE
8
Layer 1
10
154.131993
20
7.867967
11
154.131993
21
4.867967
0
LINE
8
Layer 1
10
154.131993
20
4.867967
11
148.132029
21
4.867967
0
LINE
8
Layer 1
10
148.132029
20
4.867967
11
148.132029
21
7.867967
0
LINE
8
Layer 1
10
148.132029
20
7.867967
11
142.132038
21
7.867967
0
LINE
8
Layer 1
10
142.132038
20
7.867967
11
142.132038
21
4.867967
0
LINE
8
Layer 1
10
142.132038
20
4.867967
11
136.132047
21
4.867967
0
LINE
8
Layer 1
10
136.132047
20
4.867967
11
136.132047
21
7.867967
0
LINE
8
Layer 1
10
136.132047
20
7.867967
11
130.132082
21
7.867967
0
LINE
8
Layer 1
10
130.132082
20
7.867967
11
130.132082
21
4.867967
0
LINE
8
Layer 1
10
130.132082
20
4.867967
11
124.132094
21
4.867967
0
LINE
8
Layer 1
10
124.132094
20
4.867967
11
124.132094
21
7.867967
0
LINE
8
Layer 1
10
124.132094
20
7.867967
11
118.132111
21
7.867967
0
LINE
8
Layer 1
10
118.132111
20
7.867967
11
118.132111
21
4.867967
0
LINE
8
Layer 1
10
118.132111
20
4.867967
11
112.132130
21
4.867967
0
LINE
8
Layer 1
10
112.132130
20
4.867967
11
112.132130
21
7.867967
0
LINE
8
Layer 1
10
112.132130
20
7.867967
11
106.132147
21
7.867967
0
LINE
8
Layer 1
10
106.132147
20
7.867967
11
106.132147
21
4.867967
0
LINE
8
Layer 1
10
106.132147
20
4.867967
11
100.132167
21
4.867967
0
LINE
8
Layer 1
10
100.132167
20
4.867967
11
100.132167
21
11.867960
0
LINE
8
Layer 1
10
100.132167
20
11.867960
11
103.132157
21
11.867960
0
LINE
8
Layer 1
10
103.132157
20
11.867960
11
103.132157
21
18.867953
0
LINE
8
Layer 1
10
103.132157
20
18.867953
11
100.132167
21
18.867953
0
LINE
8
Layer 1
10
100.132167
20
18.867953
11
100.132167
21
25.867946
0
LINE
8
Layer 1
10
100.132167
20
25.867946
11
103.132157
21
25.867946
0
LINE
8
Layer 1
10
103.132157
20
25.867946
11
103.132157
21
32.867939
0
LINE
8
Layer 1
10
103.132157
20
32.867939
11
100.132167
21
32.867939
0
LINE
8
Layer 1
10
100.132167
20
32.867939
11
100.132167
21
39.867919
0
LINE
8
Layer 1
10
100.132167
20
39.867919
11
103.132157
21
39.867919
0
LINE
8
Layer 1
10
41.645531
20
15.605150
11
48.445522
21
15.605150
0
LINE
8
Layer 1
10
48.445522
20
15.605150
11
48.445522
21
13.805152
0
LINE
8
Layer 1
10
48.445522
20
13.805152
11
41.645531
21
13.805152
0
LINE
8
Layer 1
10
41.645531
20
13.805152
11
41.645531
21
15.605150
 0 
ENDSEC
 0 
EOF