<?xml version="1.0" encoding="UTF-8" standalone="no"?>
<!-- Created with Inkscape (http://www.inkscape.org/) -->

<svg
   width="297mm"
   height="210mm"
   viewBox="0 0 1122.5197 793.70081"
   version="1.1"
   id="svg1"
   inkscape:version="1.3.2 (091e20e, 2023-11-25, custom)"
   sodipodi:docname="project_box.svg"
   xmlns:inkscape="http://www.inkscape.org/namespaces/inkscape"
   xmlns:sodipodi="http://sodipodi.sourceforge.net/DTD/sodipodi-0.dtd"
   xmlns="http://www.w3.org/2000/svg"
   xmlns:svg="http://www.w3.org/2000/svg">
  <sodipodi:namedview
     id="namedview1"
     pagecolor="#ffffff"
     bordercolor="#000000"
     borderopacity="0.25"
     inkscape:showpageshadow="2"
     inkscape:pageopacity="0.0"
     inkscape:pagecheckerboard="0"
     inkscape:deskcolor="#d1d1d1"
     inkscape:document-units="mm"
     showgrid="true"
     showguides="true"
     inkscape:zoom="1.6728"
     inkscape:cx="659.67241"
     inkscape:cy="391.55906"
     inkscape:window-width="3840"
     inkscape:window-height="2066"
     inkscape:window-x="-11"
     inkscape:window-y="-11"
     inkscape:window-maximized="1"
     inkscape:current-layer="layer1">
    <inkscape:grid
       id="grid1"
       units="mm"
       originx="0"
       originy="0"
       spacingx="37.795277"
       spacingy="37.795276"
       empcolor="#0099e5"
       empopacity="0.30196078"
       color="#0099e5"
       opacity="0.14901961"
       empspacing="5"
       dotted="false"
       gridanglex="30"
       gridanglez="30"
       visible="true" />
  </sodipodi:namedview>
  <defs
     id="defs1">
    <inkscape:path-effect
       effect="ruler"
       id="path-effect1"
       is_visible="true"
       lpeversion="1"
       unit="mm"
       mark_distance="7.6"
       mark_length="15"
       minor_mark_length="7"
       major_mark_steps="5"
       shift="0"
       offset="0"
       mark_dir="left"
       border_marks="both" />
    <inkscape:path-effect
       effect="ruler"
       id="path-effect1-3"
       is_visible="true"
       lpeversion="1"
       unit="mm"
       mark_distance="7.6"
       mark_length="15"
       minor_mark_length="7"
       major_mark_steps="5"
       shift="0"
       offset="0"
       mark_dir="left"
       border_marks="both" />
    <inkscape:path-effect
       effect="ruler"
       id="path-effect1-1"
       is_visible="true"
       lpeversion="1"
       unit="mm"
       mark_distance="7.6"
       mark_length="15"
       minor_mark_length="7"
       major_mark_steps="5"
       shift="0"
       offset="0"
       mark_dir="left"
       border_marks="both" />
    <inkscape:path-effect
       effect="ruler"
       id="path-effect1-3-1"
       is_visible="true"
       lpeversion="1"
       unit="mm"
       mark_distance="7.6"
       mark_length="15"
       minor_mark_length="7"
       major_mark_steps="5"
       shift="0"
       offset="0"
       mark_dir="left"
       border_marks="both" />
    <inkscape:path-effect
       effect="ruler"
       id="path-effect1-3-5"
       is_visible="true"
       lpeversion="1"
       unit="mm"
       mark_distance="7.6"
       mark_length="15"
       minor_mark_length="7"
       major_mark_steps="5"
       shift="0"
       offset="0"
       mark_dir="left"
       border_marks="both" />
    <inkscape:path-effect
       effect="ruler"
       id="path-effect1-36"
       is_visible="true"
       lpeversion="1"
       unit="mm"
       mark_distance="7.6"
       mark_length="15"
       minor_mark_length="7"
       major_mark_steps="5"
       shift="0"
       offset="0"
       mark_dir="left"
       border_marks="both" />
    <inkscape:path-effect
       effect="ruler"
       id="path-effect1-1-0"
       is_visible="true"
       lpeversion="1"
       unit="mm"
       mark_distance="7.6"
       mark_length="15"
       minor_mark_length="7"
       major_mark_steps="5"
       shift="0"
       offset="0"
       mark_dir="left"
       border_marks="both" />
    <inkscape:path-effect
       effect="ruler"
       id="path-effect1-3-1-1"
       is_visible="true"
       lpeversion="1"
       unit="mm"
       mark_distance="7.6"
       mark_length="15"
       minor_mark_length="7"
       major_mark_steps="5"
       shift="0"
       offset="0"
       mark_dir="left"
       border_marks="both" />
  </defs>
  <g
     inkscape:label="Layer 1"
     inkscape:groupmode="layer"
     id="layer1">
    <g
       id="g3">
      <rect
         style="fill:none;stroke:#000000;stroke-width:0.955823"
         id="rect10-6"
         width="10.38276"
         height="414.79221"
         x="202.68265"
         y="113.86374" />
      <path
         style="fill:none;stroke:#000000;stroke-width:2.14891"
         d="m 227.84611,132.28347 v 377.95276 m 0,-377.95276 h 15 m -15,7.6 h 7 m -7,7.6 h 7 m -7,7.6 h 7 m -7,7.6 h 7 m -7,7.6 h 15 m -15,7.6 h 7 m -7,7.6 h 7 m -7,7.6 h 7 m -7,7.6 h 7 m -7,7.6 h 15 m -15,7.6 h 7 m -7,7.6 h 7 m -7,7.6 h 7 m -7,7.6 h 7 m -7,7.6 h 15 m -15,7.6 h 7 m -7,7.6 h 7 m -7,7.6 h 7 m -7,7.6 h 7 m -7,7.6 h 15 m -15,7.6 h 7 m -7,7.6 h 7 m -7,7.6 h 7 m -7,7.6 h 7 m -7,7.6 h 15 m -15,7.6 h 7 m -7,7.6 h 7 m -7,7.6 h 7 m -7,7.6 h 7 m -7,7.6 h 15 m -15,7.6 h 7 m -7,7.6 h 7 m -7,7.6 h 7 m -7,7.6 h 7 m -7,7.6 h 15 m -15,7.6 h 7 m -7,7.6 h 7 m -7,7.6 h 7 m -7,7.6 h 7 m -7,7.6 h 15 m -15,7.6 h 7 m -7,7.6 h 7 m -7,7.6 h 7 m -7,7.6 h 7 m -7,7.6 h 15 m -15,7.6 h 7 m -7,7.6 h 7 m -7,7.6 h 7 m -7,7.6 h 7 m -7,5.55276 h 15"
         id="path1"
         inkscape:path-effect="#path-effect1"
         inkscape:original-d="M 227.84611,132.28347 V 510.23623"
         transform="matrix(1.0002279,0,0,0.99434646,-11.39026,1.8162481)" />
      <path
         style="fill:none;stroke:#000000;stroke-width:2.14891"
         d="m 227.84611,132.28347 v 377.95276 m 0,-377.95276 h 15 m -15,7.6 h 7 m -7,7.6 h 7 m -7,7.6 h 7 m -7,7.6 h 7 m -7,7.6 h 15 m -15,7.6 h 7 m -7,7.6 h 7 m -7,7.6 h 7 m -7,7.6 h 7 m -7,7.6 h 15 m -15,7.6 h 7 m -7,7.6 h 7 m -7,7.6 h 7 m -7,7.6 h 7 m -7,7.6 h 15 m -15,7.6 h 7 m -7,7.6 h 7 m -7,7.6 h 7 m -7,7.6 h 7 m -7,7.6 h 15 m -15,7.6 h 7 m -7,7.6 h 7 m -7,7.6 h 7 m -7,7.6 h 7 m -7,7.6 h 15 m -15,7.6 h 7 m -7,7.6 h 7 m -7,7.6 h 7 m -7,7.6 h 7 m -7,7.6 h 15 m -15,7.6 h 7 m -7,7.6 h 7 m -7,7.6 h 7 m -7,7.6 h 7 m -7,7.6 h 15 m -15,7.6 h 7 m -7,7.6 h 7 m -7,7.6 h 7 m -7,7.6 h 7 m -7,7.6 h 15 m -15,7.6 h 7 m -7,7.6 h 7 m -7,7.6 h 7 m -7,7.6 h 7 m -7,7.6 h 15 m -15,7.6 h 7 m -7,7.6 h 7 m -7,7.6 h 7 m -7,7.6 h 7 m -7,5.55276 h 15"
         id="path1-7-5-6"
         inkscape:path-effect="#path-effect1-3-1-1"
         inkscape:original-d="M 227.84611,132.28347 V 510.23623"
         transform="matrix(-1.0002278,0,0,-0.99434646,427.1534,640.70344)" />
      <circle
         style="fill:none;stroke:#000000;stroke-width:0.918953"
         id="path2"
         cx="207.87402"
         cy="94.48819"
         r="5.209815" />
      <circle
         style="fill:none;stroke:#000000;stroke-width:0.918953"
         id="path2-8"
         cx="207.87395"
         cy="548.03149"
         r="5.209815" />
    </g>
    <g
       id="g4">
      <rect
         style="fill:none;stroke:#000000;stroke-width:0.955823"
         id="rect10-6-5"
         width="10.38276"
         height="414.79221"
         x="278.27319"
         y="113.86374" />
      <path
         style="fill:none;stroke:#000000;stroke-width:2.14891"
         d="m 227.84611,132.28347 v 377.95276 m 0,-377.95276 h 15 m -15,7.6 h 7 m -7,7.6 h 7 m -7,7.6 h 7 m -7,7.6 h 7 m -7,7.6 h 15 m -15,7.6 h 7 m -7,7.6 h 7 m -7,7.6 h 7 m -7,7.6 h 7 m -7,7.6 h 15 m -15,7.6 h 7 m -7,7.6 h 7 m -7,7.6 h 7 m -7,7.6 h 7 m -7,7.6 h 15 m -15,7.6 h 7 m -7,7.6 h 7 m -7,7.6 h 7 m -7,7.6 h 7 m -7,7.6 h 15 m -15,7.6 h 7 m -7,7.6 h 7 m -7,7.6 h 7 m -7,7.6 h 7 m -7,7.6 h 15 m -15,7.6 h 7 m -7,7.6 h 7 m -7,7.6 h 7 m -7,7.6 h 7 m -7,7.6 h 15 m -15,7.6 h 7 m -7,7.6 h 7 m -7,7.6 h 7 m -7,7.6 h 7 m -7,7.6 h 15 m -15,7.6 h 7 m -7,7.6 h 7 m -7,7.6 h 7 m -7,7.6 h 7 m -7,7.6 h 15 m -15,7.6 h 7 m -7,7.6 h 7 m -7,7.6 h 7 m -7,7.6 h 7 m -7,7.6 h 15 m -15,7.6 h 7 m -7,7.6 h 7 m -7,7.6 h 7 m -7,7.6 h 7 m -7,5.55276 h 15"
         id="path1-7"
         inkscape:path-effect="#path-effect1-3"
         inkscape:original-d="M 227.84611,132.28347 V 510.23623"
         transform="matrix(1.0002279,0,0,0.99434646,64.200304,1.8162481)" />
      <path
         style="fill:none;stroke:#000000;stroke-width:2.14891"
         d="m 227.84611,132.28347 v 377.95276 m 0,-377.95276 h 15 m -15,7.6 h 7 m -7,7.6 h 7 m -7,7.6 h 7 m -7,7.6 h 7 m -7,7.6 h 15 m -15,7.6 h 7 m -7,7.6 h 7 m -7,7.6 h 7 m -7,7.6 h 7 m -7,7.6 h 15 m -15,7.6 h 7 m -7,7.6 h 7 m -7,7.6 h 7 m -7,7.6 h 7 m -7,7.6 h 15 m -15,7.6 h 7 m -7,7.6 h 7 m -7,7.6 h 7 m -7,7.6 h 7 m -7,7.6 h 15 m -15,7.6 h 7 m -7,7.6 h 7 m -7,7.6 h 7 m -7,7.6 h 7 m -7,7.6 h 15 m -15,7.6 h 7 m -7,7.6 h 7 m -7,7.6 h 7 m -7,7.6 h 7 m -7,7.6 h 15 m -15,7.6 h 7 m -7,7.6 h 7 m -7,7.6 h 7 m -7,7.6 h 7 m -7,7.6 h 15 m -15,7.6 h 7 m -7,7.6 h 7 m -7,7.6 h 7 m -7,7.6 h 7 m -7,7.6 h 15 m -15,7.6 h 7 m -7,7.6 h 7 m -7,7.6 h 7 m -7,7.6 h 7 m -7,7.6 h 15 m -15,7.6 h 7 m -7,7.6 h 7 m -7,7.6 h 7 m -7,7.6 h 7 m -7,5.55276 h 15"
         id="path1-78-9"
         inkscape:path-effect="#path-effect1-1-0"
         inkscape:original-d="M 227.84611,132.28347 V 510.23623"
         transform="matrix(-1.0002278,0,0,-0.99434646,502.74395,640.70344)" />
      <circle
         style="fill:none;stroke:#000000;stroke-width:0.918953"
         id="path2-1"
         cx="283.46457"
         cy="94.48819"
         r="5.209815" />
      <circle
         style="fill:none;stroke:#000000;stroke-width:0.918953"
         id="path2-1-9"
         cx="283.46451"
         cy="548.03149"
         r="5.209815" />
    </g>
    <g
       id="g5">
      <rect
         style="fill:none;stroke:#000000;stroke-width:0.955823"
         id="rect10-6-4"
         width="10.38276"
         height="414.79221"
         x="353.86374"
         y="113.86374" />
      <path
         style="fill:none;stroke:#000000;stroke-width:2.14891"
         d="m 227.84611,132.28347 v 377.95276 m 0,-377.95276 h 15 m -15,7.6 h 7 m -7,7.6 h 7 m -7,7.6 h 7 m -7,7.6 h 7 m -7,7.6 h 15 m -15,7.6 h 7 m -7,7.6 h 7 m -7,7.6 h 7 m -7,7.6 h 7 m -7,7.6 h 15 m -15,7.6 h 7 m -7,7.6 h 7 m -7,7.6 h 7 m -7,7.6 h 7 m -7,7.6 h 15 m -15,7.6 h 7 m -7,7.6 h 7 m -7,7.6 h 7 m -7,7.6 h 7 m -7,7.6 h 15 m -15,7.6 h 7 m -7,7.6 h 7 m -7,7.6 h 7 m -7,7.6 h 7 m -7,7.6 h 15 m -15,7.6 h 7 m -7,7.6 h 7 m -7,7.6 h 7 m -7,7.6 h 7 m -7,7.6 h 15 m -15,7.6 h 7 m -7,7.6 h 7 m -7,7.6 h 7 m -7,7.6 h 7 m -7,7.6 h 15 m -15,7.6 h 7 m -7,7.6 h 7 m -7,7.6 h 7 m -7,7.6 h 7 m -7,7.6 h 15 m -15,7.6 h 7 m -7,7.6 h 7 m -7,7.6 h 7 m -7,7.6 h 7 m -7,7.6 h 15 m -15,7.6 h 7 m -7,7.6 h 7 m -7,7.6 h 7 m -7,7.6 h 7 m -7,5.55276 h 15"
         id="path1-78"
         inkscape:path-effect="#path-effect1-1"
         inkscape:original-d="M 227.84611,132.28347 V 510.23623"
         transform="matrix(1.0002279,0,0,0.99434646,139.79085,1.8162481)" />
      <path
         style="fill:none;stroke:#000000;stroke-width:2.14891"
         d="m 227.84611,132.28347 v 377.95276 m 0,-377.95276 h 15 m -15,7.6 h 7 m -7,7.6 h 7 m -7,7.6 h 7 m -7,7.6 h 7 m -7,7.6 h 15 m -15,7.6 h 7 m -7,7.6 h 7 m -7,7.6 h 7 m -7,7.6 h 7 m -7,7.6 h 15 m -15,7.6 h 7 m -7,7.6 h 7 m -7,7.6 h 7 m -7,7.6 h 7 m -7,7.6 h 15 m -15,7.6 h 7 m -7,7.6 h 7 m -7,7.6 h 7 m -7,7.6 h 7 m -7,7.6 h 15 m -15,7.6 h 7 m -7,7.6 h 7 m -7,7.6 h 7 m -7,7.6 h 7 m -7,7.6 h 15 m -15,7.6 h 7 m -7,7.6 h 7 m -7,7.6 h 7 m -7,7.6 h 7 m -7,7.6 h 15 m -15,7.6 h 7 m -7,7.6 h 7 m -7,7.6 h 7 m -7,7.6 h 7 m -7,7.6 h 15 m -15,7.6 h 7 m -7,7.6 h 7 m -7,7.6 h 7 m -7,7.6 h 7 m -7,7.6 h 15 m -15,7.6 h 7 m -7,7.6 h 7 m -7,7.6 h 7 m -7,7.6 h 7 m -7,7.6 h 15 m -15,7.6 h 7 m -7,7.6 h 7 m -7,7.6 h 7 m -7,7.6 h 7 m -7,5.55276 h 15"
         id="path1-7-7"
         inkscape:path-effect="#path-effect1-3-5"
         inkscape:original-d="M 227.84611,132.28347 V 510.23623"
         transform="matrix(-1.0002278,0,0,-0.99434646,578.3345,640.70344)" />
      <circle
         style="fill:none;stroke:#000000;stroke-width:0.918953"
         id="path2-5"
         cx="359.05511"
         cy="94.48819"
         r="5.209815" />
      <circle
         style="fill:none;stroke:#000000;stroke-width:0.918953"
         id="path2-5-3"
         cx="359.05505"
         cy="548.03149"
         r="5.209815" />
    </g>
    <g
       id="g6">
      <rect
         style="fill:none;stroke:#000000;stroke-width:0.955823"
         id="rect10-6-5-2"
         width="10.38276"
         height="414.79221"
         x="429.45428"
         y="113.86374" />
      <path
         style="fill:none;stroke:#000000;stroke-width:2.14891"
         d="m 227.84611,132.28347 v 377.95276 m 0,-377.95276 h 15 m -15,7.6 h 7 m -7,7.6 h 7 m -7,7.6 h 7 m -7,7.6 h 7 m -7,7.6 h 15 m -15,7.6 h 7 m -7,7.6 h 7 m -7,7.6 h 7 m -7,7.6 h 7 m -7,7.6 h 15 m -15,7.6 h 7 m -7,7.6 h 7 m -7,7.6 h 7 m -7,7.6 h 7 m -7,7.6 h 15 m -15,7.6 h 7 m -7,7.6 h 7 m -7,7.6 h 7 m -7,7.6 h 7 m -7,7.6 h 15 m -15,7.6 h 7 m -7,7.6 h 7 m -7,7.6 h 7 m -7,7.6 h 7 m -7,7.6 h 15 m -15,7.6 h 7 m -7,7.6 h 7 m -7,7.6 h 7 m -7,7.6 h 7 m -7,7.6 h 15 m -15,7.6 h 7 m -7,7.6 h 7 m -7,7.6 h 7 m -7,7.6 h 7 m -7,7.6 h 15 m -15,7.6 h 7 m -7,7.6 h 7 m -7,7.6 h 7 m -7,7.6 h 7 m -7,7.6 h 15 m -15,7.6 h 7 m -7,7.6 h 7 m -7,7.6 h 7 m -7,7.6 h 7 m -7,7.6 h 15 m -15,7.6 h 7 m -7,7.6 h 7 m -7,7.6 h 7 m -7,7.6 h 7 m -7,5.55276 h 15"
         id="path1-7-5"
         inkscape:path-effect="#path-effect1-3-1"
         inkscape:original-d="M 227.84611,132.28347 V 510.23623"
         transform="matrix(1.0002279,0,0,0.99434646,215.38141,1.8162481)" />
      <path
         style="fill:none;stroke:#000000;stroke-width:2.14891"
         d="m 227.84611,132.28347 v 377.95276 m 0,-377.95276 h 15 m -15,7.6 h 7 m -7,7.6 h 7 m -7,7.6 h 7 m -7,7.6 h 7 m -7,7.6 h 15 m -15,7.6 h 7 m -7,7.6 h 7 m -7,7.6 h 7 m -7,7.6 h 7 m -7,7.6 h 15 m -15,7.6 h 7 m -7,7.6 h 7 m -7,7.6 h 7 m -7,7.6 h 7 m -7,7.6 h 15 m -15,7.6 h 7 m -7,7.6 h 7 m -7,7.6 h 7 m -7,7.6 h 7 m -7,7.6 h 15 m -15,7.6 h 7 m -7,7.6 h 7 m -7,7.6 h 7 m -7,7.6 h 7 m -7,7.6 h 15 m -15,7.6 h 7 m -7,7.6 h 7 m -7,7.6 h 7 m -7,7.6 h 7 m -7,7.6 h 15 m -15,7.6 h 7 m -7,7.6 h 7 m -7,7.6 h 7 m -7,7.6 h 7 m -7,7.6 h 15 m -15,7.6 h 7 m -7,7.6 h 7 m -7,7.6 h 7 m -7,7.6 h 7 m -7,7.6 h 15 m -15,7.6 h 7 m -7,7.6 h 7 m -7,7.6 h 7 m -7,7.6 h 7 m -7,7.6 h 15 m -15,7.6 h 7 m -7,7.6 h 7 m -7,7.6 h 7 m -7,7.6 h 7 m -7,5.55276 h 15"
         id="path1-4"
         inkscape:path-effect="#path-effect1-36"
         inkscape:original-d="M 227.84611,132.28347 V 510.23623"
         transform="matrix(-1.0002278,0,0,-0.99434646,653.92505,640.70344)" />
      <circle
         style="fill:none;stroke:#000000;stroke-width:0.918953"
         id="path2-1-7"
         cx="434.64566"
         cy="94.48819"
         r="5.209815" />
      <circle
         style="fill:none;stroke:#000000;stroke-width:0.918953"
         id="path2-1-7-2"
         cx="434.64557"
         cy="548.03149"
         r="5.209815" />
    </g>
    <path
       d="m 163.01969,593.88582 h 11.33858 v 11.33859 h 22.67717 v -11.33859 h 22.67716 v 11.33859 h 22.67716 v -11.33859 h 22.67716 v 11.33859 h 22.67717 v -11.33859 h 22.67717 v 11.33859 h 22.67716 v -11.33859 h 22.67717 v 11.33859 h 22.67716 v -11.33859 h 22.67717 v 11.33859 h 22.67716 v -11.33859 h 22.67717 v 11.33859 h 22.67716 v -11.33859 h 11.33858 v -23.28189 h 11.33859 v -23.28188 h -11.33859 v -23.28189 h 11.33859 v -23.28189 h -11.33859 v -23.28189 h 11.33859 V 454.19449 H 480.49999 V 430.9126 h 11.33859 v -23.28189 h -11.33859 v -23.28189 h 11.33859 v -23.28189 h -11.33859 v -23.28189 h 11.33859 v -23.28189 h -11.33859 v -23.28189 h 11.33859 v -23.28189 h -11.33859 v -23.28189 h 11.33859 V 221.37559 H 480.49999 V 198.0937 h 11.33859 v -23.28189 h -11.33859 v -23.28189 h 11.33859 v -23.28189 h -11.33859 v -23.28189 h 11.33859 V 81.68425 H 480.49999 V 58.40236 h 11.33859 V 35.12047 H 480.49999 V 11.83858 H 469.16141 V 0.5 H 446.48425 V 11.83858 H 423.80708 V 0.5 H 401.12992 V 11.83858 H 378.45275 V 0.5 H 355.77559 V 11.83858 H 333.09842 V 0.5 H 310.42126 V 11.83858 H 287.74409 V 0.5 H 265.06692 V 11.83858 H 242.38976 V 0.5 H 219.7126 V 11.83858 H 197.03544 V 0.5 h -22.67717 v 11.33858 h -11.33858 v 23.28189 h -11.33858 v 23.28189 h 11.33858 v 23.28189 h -11.33858 v 23.28189 h 11.33858 v 23.28189 h -11.33858 v 23.28189 h 11.33858 v 23.28189 h -11.33858 v 23.28189 h 11.33858 v 23.28189 h -11.33858 v 23.28189 h 11.33858 v 23.28189 h -11.33858 v 23.28189 h 11.33858 v 23.28189 h -11.33858 v 23.28189 h 11.33858 v 23.28189 h -11.33858 v 23.28189 h 11.33858 v 23.28189 h -11.33858 v 23.28189 h 11.33858 v 23.28189 h -11.33858 v 23.28189 h 11.33858 v 23.28189 h -11.33858 v 23.28189 h 11.33858 v 23.28189 h -11.33858 v 23.28188 h 11.33858 v 23.28189"
       style="fill:none;stroke:#000000"
       id="path5" />
    <path
       d="M 0.5,593.88582 V 570.60393 H 11.83858 V 547.32205 H 0.5 V 524.04016 H 11.83858 V 500.75827 H 0.5 V 477.47638 H 11.83858 V 454.19449 H 0.5 V 430.9126 H 11.83858 V 407.63071 H 0.5 V 384.34882 H 11.83858 V 361.06693 H 0.5 V 337.78504 H 11.83858 V 314.50315 H 0.5 V 291.22126 H 11.83858 V 267.93937 H 0.5 V 244.65748 H 11.83858 V 221.37559 H 0.5 V 198.0937 H 11.83858 V 174.81181 H 0.5 V 151.52992 H 11.83858 V 128.24803 H 0.5 V 104.96614 H 11.83858 V 81.68425 H 0.5 V 58.40236 H 11.83858 V 35.12047 H 0.5 V 11.83858 H 26.95669 V 0.5 h 26.4567 V 11.83858 H 79.87008 V 0.5 h 26.45669 v 11.33858 h 26.45669 v 23.28189 h -11.33858 v 23.28189 h 11.33858 v 23.28189 h -11.33858 v 23.28189 h 11.33858 v 23.28189 h -11.33858 v 23.28189 h 11.33858 v 23.28189 h -11.33858 v 23.28189 h 11.33858 v 23.28189 h -11.33858 v 23.28189 h 11.33858 v 23.28189 h -11.33858 v 23.28189 h 11.33858 v 23.28189 h -11.33858 v 23.28189 h 11.33858 v 23.28189 h -11.33858 v 23.28189 h 11.33858 v 23.28189 h -11.33858 v 23.28189 h 11.33858 v 23.28189 h -11.33858 v 23.28189 h 11.33858 v 23.28189 h -11.33858 v 23.28189 h 11.33858 v 23.28189 h -11.33858 v 23.28188 h 11.33858 v 23.28189 h -26.45669 v 11.33859 H 79.87008 V 593.88582 H 53.41339 v 11.33859 H 26.95669 V 593.88582 H 0.5"
       style="fill:none;stroke:#000000"
       id="path8" />
    <path
       d="m 661.91733,593.88582 v -23.28189 h -11.33858 v -23.28188 h 11.33858 v -23.28189 h -11.33858 v -23.28189 h 11.33858 v -23.28189 h -11.33858 v -23.28189 h 11.33858 V 430.9126 h -11.33858 v -23.28189 h 11.33858 v -23.28189 h -11.33858 v -23.28189 h 11.33858 v -23.28189 h -11.33858 v -23.28189 h 11.33858 v -23.28189 h -11.33858 v -23.28189 h 11.33858 v -23.28189 h -11.33858 v -23.28189 h 11.33858 V 198.0937 h -11.33858 v -23.28189 h 11.33858 v -23.28189 h -11.33858 v -23.28189 h 11.33858 V 104.96614 H 650.57875 V 81.68425 h 11.33858 V 58.40236 H 650.57875 V 35.12047 h 11.33858 V 11.83858 H 635.46064 V 0.5 H 609.00395 V 11.83858 H 582.54726 V 0.5 h -26.4567 v 11.33858 h -26.45669 v 23.28189 h 11.33858 v 23.28189 h -11.33858 v 23.28189 h 11.33858 v 23.28189 h -11.33858 v 23.28189 h 11.33858 v 23.28189 h -11.33858 v 23.28189 h 11.33858 v 23.28189 h -11.33858 v 23.28189 h 11.33858 v 23.28189 h -11.33858 v 23.28189 h 11.33858 v 23.28189 h -11.33858 v 23.28189 h 11.33858 v 23.28189 h -11.33858 v 23.28189 h 11.33858 v 23.28189 h -11.33858 v 23.28189 h 11.33858 v 23.28189 h -11.33858 v 23.28189 h 11.33858 v 23.28189 h -11.33858 v 23.28189 h 11.33858 v 23.28189 h -11.33858 v 23.28189 h 11.33858 v 23.28188 h -11.33858 v 23.28189 h 26.45669 v 11.33859 h 26.4567 v -11.33859 h 26.45669 v 11.33859 h 26.45669 v -11.33859 h 26.45669"
       style="fill:none;stroke:#000000"
       id="path9" />
    <path
       d="m 729.94883,594.18723 h 24.41575 v 11.33858 h 24.41575 v -11.33858 h 24.41575 v 11.33858 h 24.45354 v -11.33858 h 24.41575 v 11.33858 h 24.41576 v -11.33858 h 24.4157 v 11.33858 h 24.4158 v -11.33858 h 24.4157 v 11.33858 h 24.4158 v -11.33858 h 24.4535 v 11.33858 h 24.41577 v -11.33858 h 24.4157 v -23.28189 h 11.3386 v -23.28189 h -11.3386 v -23.28189 h 11.3386 v -23.28189 h -11.3386 v -23.28189 h 11.3386 v -23.28189 h -11.3386 V 431.214 h 11.3386 v -23.28189 h -11.3386 v -23.28189 h 11.3386 v -23.28189 h -11.3386 v -23.28189 h 11.3386 v -23.28189 h -11.3386 v -23.28189 h 11.3386 v -23.28189 h -11.3386 v -23.28189 h 11.3386 v -23.28189 h -11.3386 V 198.3951 h 11.3386 v -23.28189 h -11.3386 v -23.28189 h 11.3386 v -23.28189 h -11.3386 v -23.28189 h 11.3386 V 81.98565 h -11.3386 V 58.70376 h 11.3386 V 35.42187 h -11.3386 V 12.13998 h -24.4157 V 0.8014 h -24.41577 v 11.33858 h -24.4535 V 0.8014 h -24.4158 v 11.33858 h -24.4157 V 0.8014 h -24.4158 v 11.33858 h -24.4157 V 0.8014 H 852.06537 V 12.13998 H 827.64962 V 0.8014 H 803.19608 V 12.13998 H 778.78033 V 0.8014 h -24.41575 v 11.33858 h -24.41575 v 23.28189 h -11.33858 v 23.28189 h 11.33858 v 23.28189 h -11.33858 v 23.28189 h 11.33858 v 23.28189 h -11.33858 v 23.28189 h 11.33858 v 23.28189 h -11.33858 v 23.28189 h 11.33858 v 23.28189 h -11.33858 v 23.28189 h 11.33858 v 23.28189 h -11.33858 v 23.28189 h 11.33858 v 23.28189 h -11.33858 v 23.28189 h 11.33858 v 23.28189 h -11.33858 v 23.28189 h 11.33858 v 23.28189 H 718.61025 V 431.214 h 11.33858 v 23.28189 h -11.33858 v 23.28189 h 11.33858 v 23.28189 h -11.33858 v 23.28189 h 11.33858 v 23.28189 h -11.33858 v 23.28189 h 11.33858 v 23.28189"
       style="fill:none;stroke:#000000"
       id="path10" />
    <path
       d="m 11.838559,775.30318 h 24.415707 v -11.3386 h 24.415706 v 11.3386 h 24.415697 v -11.3386 h 24.453511 v 11.3386 h 24.41569 v -11.3386 h 24.41571 v 11.3386 h 24.4157 v -11.3386 h 24.41571 v 11.3386 h 24.41571 v -11.3386 h 24.4157 v 11.3386 h 24.4535 v -11.3386 h 24.41571 v 11.3386 h 24.41569 11.33857 v -26.4567 H 329.3183 v -26.4567 h 11.33857 v -26.4567 H 329.3183 v -26.4567 h 11.33857 V 643.0197 h -22.67713 v 11.33858 H 295.30262 V 643.0197 h -22.67713 v 11.33858 H 249.94838 V 643.0197 h -22.67713 v 11.33858 H 204.59413 V 643.0197 H 181.917 v 11.33858 H 159.23988 V 643.0197 h -22.67713 v 11.33858 H 113.88562 V 643.0197 H 91.208498 v 11.33858 H 68.531368 V 643.0197 H 45.854249 v 11.33858 H 23.177119 V 643.0197 H 0.49999956 v 26.45668 H 11.838559 v 26.4567 H 0.49999956 v 26.4567 H 11.838559 v 26.4567 H 0.49999956 v 26.4567 H 11.838559"
       style="fill:none;stroke:#000000"
       id="path6-4" />
    <path
       d="m 389.79132,643.0197 h 24.41571 v 11.33855 h 24.41571 V 643.0197 h 24.41569 v 11.33855 h 24.45351 V 643.0197 h 24.41574 v 11.33855 h 24.41565 V 643.0197 h 24.41576 v 11.33855 h 24.41566 V 643.0197 h 24.41575 v 11.33855 h 24.41566 V 643.0197 h 24.45356 v 11.33855 h 24.41565 V 643.0197 h 24.41566 11.33858 v 26.45665 h -11.33858 v 26.4567 h 11.33858 v 26.4567 h -11.33858 v 26.4567 h 11.33858 v 26.4567 h -22.67706 v -11.3386 h -22.67716 v 11.3386 h -22.67716 v -11.3386 h -22.67706 v 11.3386 h -22.67716 v -11.3386 h -22.67716 v 11.3386 h -22.67706 v -11.3386 h -22.67716 v 11.3386 h -22.67716 v -11.3386 h -22.67706 v 11.3386 h -22.67715 v -11.3386 h -22.67713 v 11.3386 h -22.67712 v -11.3386 h -22.67713 v 11.3386 h -22.67712 v -26.4567 h 11.33856 v -26.4567 h -11.33856 v -26.4567 h 11.33856 v -26.4567 H 378.45276 V 643.0197 h 11.33856"
       style="fill:none;stroke:#000000"
       id="path7-2" />
    <rect
       style="fill:none;stroke:#000000;stroke-width:1.00157482;stroke-dasharray:none"
       id="rect6"
       width="25.700788"
       height="6.8031497"
       x="157.40063"
       y="734.72162" />
  </g>
</svg>
